<svg width="18" height="30" viewBox="0 0 18 30" fill="none" xmlns="http://www.w3.org/2000/svg">
<g filter="url(#filter0_d)">
<path d="M2.27541 10.164H5.70741V22H2.27541V10.164ZM3.99141 8.514C3.36074 8.514 2.84741 8.33067 2.45141 7.964C2.05541 7.59733 1.85741 7.14267 1.85741 6.6C1.85741 6.05733 2.05541 5.60267 2.45141 5.236C2.84741 4.86933 3.36074 4.686 3.99141 4.686C4.62207 4.686 5.13541 4.862 5.53141 5.214C5.92741 5.566 6.12541 6.006 6.12541 6.534C6.12541 7.106 5.92741 7.58267 5.53141 7.964C5.13541 8.33067 4.62207 8.514 3.99141 8.514Z" transform="translate(5 -1)" fill="url(#paint0_linear)"/>
</g>
<defs>
<filter id="filter0_d" x="0.917232" y="0.121921" width="16.1484" height="29.1944" filterUnits="userSpaceOnUse" color-interpolation-filters="sRGB">
<feFlood flood-opacity="0" result="BackgroundImageFix"/>
<feColorMatrix in="SourceAlpha" type="matrix" values="0 0 0 0 0 0 0 0 0 0 0 0 0 0 0 0 0 0 255 0"/>
<feOffset dy="2.37608"/>
<feGaussianBlur stdDeviation="2.97009"/>
<feColorMatrix type="matrix" values="0 0 0 0 0 0 0 0 0 0 0 0 0 0 0 0 0 0 0.7 0"/>
<feBlend mode="normal" in2="BackgroundImageFix" result="effect1_dropShadow"/>
<feBlend mode="normal" in="SourceGraphic" in2="effect1_dropShadow" result="shape"/>
</filter>
<linearGradient id="paint0_linear" x2="1" gradientUnits="userSpaceOnUse" gradientTransform="translate(11.6667 26.8333) scale(15.3333 53.6667) rotate(180)">
<stop offset="0.2" stop-color="#B57F3A"/>
<stop offset="0.53" stop-color="#F5C176"/>
<stop offset="0.73" stop-color="#BF945D"/>
</linearGradient>
</defs>
</svg>
