<svg width="126" height="46" viewBox="0 0 126 46" fill="none" xmlns="http://www.w3.org/2000/svg">
<g filter="url(#filter0_d)">
<path d="M105.57 22.1908C105.283 22.4914 104.935 22.6408 104.526 22.6408H89.7855C89.376 22.6408 89.0274 22.4914 88.7407 22.1908C88.4549 21.891 88.3111 21.5263 88.3111 21.0973V11.8347C88.3111 11.4057 88.4549 11.0418 88.7407 10.7412C89.0274 10.4414 89.376 10.2911 89.7855 10.2911H90.2762V7.20331C90.2762 5.23087 90.9524 3.53707 92.3031 2.12192C93.6546 0.706764 95.272 -2.10729e-07 97.1552 -2.10729e-07C99.0391 -2.10729e-07 100.656 0.706764 102.008 2.12192C103.359 3.53707 104.034 5.23087 104.034 7.20331V10.2911H104.526C104.935 10.2911 105.283 10.4414 105.57 10.7412C105.856 11.0418 106 11.4065 106 11.8347V21.0973C106 21.5263 105.856 21.891 105.57 22.1908ZM101.086 7.20331C101.086 6.06761 100.702 5.09683 99.9345 4.29339C99.1668 3.48914 98.2409 3.08702 97.156 3.08702C96.0702 3.08702 95.1443 3.48914 94.3766 4.29339C93.6089 5.09683 93.225 6.06761 93.225 7.20331V10.2911H101.086V7.20331ZM78.2512 5.03184L78.2296 4.76213L78.1838 4.54929L78.0617 4.42337L77.8296 4.3795L77.5381 4.4583L77.2402 4.65815L77.2458 4.76619L77.249 4.88399V6.29752H76.9005V5.03753L76.8868 4.76457L76.8363 4.55335L76.719 4.42743L76.4829 4.38275L76.1954 4.4583L75.9039 4.65002V6.29752H75.5594V4.09111H75.9039V4.33482L76.2364 4.10979L76.5809 4.02775L76.9439 4.11873L77.1671 4.38275L77.551 4.10979L77.926 4.02775L78.4335 4.24709L78.5974 4.86368V6.29183H78.2512V5.03184ZM74.7114 6.33976L74.2255 6.15616L74.0593 5.5745V4.39981H73.8176V4.08624H74.0593V3.45665H74.411V4.08624H75.129V4.39981H74.411V5.40959L74.4183 5.68092L74.468 5.8629L74.5805 5.97907L74.8005 6.01643L74.9788 5.98881L75.1129 5.94738H75.129V6.27802L74.9146 6.3227L74.7114 6.33976ZM71.3281 5.88808L68.4596 19.6489L68.36 19.8122C68.1898 20.198 67.8276 20.5124 67.4341 20.5124H65.4449L65.4088 20.4645C65.0305 20.4019 64.784 20.081 64.8731 19.657L64.8691 19.6472L64.9551 19.25L67.6365 6.33976L67.7312 5.89052L67.838 5.71423C68.0099 5.33404 68.3664 5.02615 68.7599 5.02615H70.6744C71.1426 5.02615 71.4213 5.41122 71.3225 5.88483L71.3281 5.88808ZM64.3977 12.4967L62.8318 19.6456C62.7442 20.081 62.3403 20.4442 61.9187 20.497L61.8906 20.5084H61.583C61.1397 20.5084 60.2074 20.5084 59.9384 20.5084H59.9006L59.8966 20.501C59.4806 20.4588 59.2253 20.0924 59.3256 19.6513L59.3216 19.6456L59.3305 19.6375L59.4019 19.2744L59.3899 19.2557L58.5876 19.8268L57.7035 20.3418L56.6699 20.7147C56.3495 20.8032 55.9014 20.8414 55.328 20.8487C54.4134 20.8487 53.6561 20.5766 53.0739 20.0274C52.4949 19.475 52.1969 18.7561 52.1969 17.8763C52.1969 16.951 52.4009 16.1597 52.8097 15.5098C53.2272 14.8607 53.84 14.3514 54.6495 13.9688C55.414 13.6007 56.3319 13.3335 57.3694 13.1791C58.4254 13.0158 59.304 12.898 60.5294 12.8184L60.8362 12.6129L60.8683 12.2936C60.8683 11.8038 60.6579 11.4618 60.2218 11.2636C59.7882 11.0678 59.1329 10.9711 58.2809 10.9711C57.6962 10.9678 56.9622 11.0913 56.2708 11.2562C55.5481 11.4342 55.3529 11.5446 54.9996 11.6576C54.8205 11.7136 54.435 11.7461 54.5812 11.0182L54.8422 9.87846C54.8422 9.87846 54.9634 9.0149 55.7818 8.82806C56.1785 8.73707 56.2427 8.71595 56.8819 8.61765C57.7444 8.4698 58.6109 8.3975 59.4718 8.3975C61.208 8.3975 62.4816 8.64202 63.2959 9.12457C64.1126 9.6055 64.5198 10.3537 64.5198 11.3635L64.4764 11.9094L64.3977 12.4967ZM60.1295 14.981C60.001 14.981 59.0381 15.1004 58.5539 15.167C57.9998 15.2499 57.5252 15.3628 57.1429 15.5017C56.7518 15.665 56.4338 15.8868 56.2267 16.1557C56.0211 16.4392 55.9191 16.8031 55.9191 17.2646L56.3391 18.1127C56.6073 18.2808 57.0145 18.3621 57.5573 18.3621C57.8978 18.3621 58.2752 18.2735 58.6695 18.1045L59.5063 17.6447L59.8508 17.1736C59.9793 16.6212 60.2564 15.4115 60.2789 15.2596L60.1295 14.981ZM45.0827 15.4318H44.4723C44.0098 15.4245 43.5488 15.8185 43.4428 16.2921L42.7177 19.6643C42.6109 20.1355 42.1427 20.523 41.6889 20.5197L39.544 20.523C39.0887 20.5254 38.7891 20.1339 38.8983 19.6627L41.9106 5.77354C42.0182 5.30317 42.4679 4.91973 42.9321 4.91161L47.4083 4.90836C48.3696 4.91161 49.2144 4.98391 49.9235 5.11714C50.6446 5.25605 51.2662 5.49652 51.7858 5.84015C52.2957 6.18622 52.6972 6.63059 52.963 7.18057C53.2369 7.72404 53.3702 8.40887 53.3742 9.22368C53.3742 11.084 52.6418 12.582 51.1987 13.7283C49.7372 14.8607 47.7014 15.4318 45.0827 15.4318ZM48.6852 8.23096C48.262 7.94095 47.6476 7.79472 46.8261 7.79147L46.1298 7.79472C45.6689 7.79147 45.2007 8.1871 45.1059 8.65827L44.4579 11.6015C44.3543 12.0735 44.6522 12.4691 45.1148 12.4659H45.6472C46.8044 12.4659 47.7014 12.214 48.3479 11.7209C48.9911 11.2156 49.3164 10.508 49.3123 9.58194C49.3019 8.97672 49.1019 8.52179 48.6852 8.23096ZM30.3723 25.1373C30.0985 25.6141 29.4905 26 29.0336 26H26.8164C26.3554 26 26.2036 25.6141 26.4855 25.1373L28.3815 21.6359C28.3815 21.6359 28.5333 21.4336 28.3984 20.2906C28.1061 18.2264 26.6501 9.44221 26.6501 9.44221C26.5441 8.96779 26.8292 8.57866 27.2902 8.57866L29.2087 8.57379C29.7965 8.57379 30.2679 8.98322 30.3739 9.46415L31.3287 15.5553L31.6829 15.5586C31.9816 14.9988 35.0469 9.42515 35.0469 9.42515C35.34 8.95641 35.9326 8.55835 36.3936 8.55835C36.3936 8.55835 38.4542 8.56404 38.961 8.55835C39.7223 8.54698 38.9031 9.85327 38.9031 9.85327L30.3723 25.1373ZM25.5122 12.4845L23.9503 19.6399C23.8595 20.0697 23.4564 20.4328 23.0308 20.4897L23.0011 20.501H22.6919H21.0496H21.0111L21.0039 20.4897C20.5959 20.4499 20.3445 20.0843 20.4321 19.6416V19.6375L20.4353 19.6229L20.5156 19.2589L20.5052 19.2459L19.6989 19.8097L18.8203 20.3304L17.7844 20.705C17.4664 20.7862 17.0183 20.8341 16.4409 20.8374C15.5278 20.8374 14.7633 20.5693 14.1859 20.0201C13.6117 19.4636 13.3146 18.7447 13.3146 17.8706C13.3146 16.9429 13.5178 16.1524 13.9257 15.4985C14.3481 14.8486 14.952 14.3392 15.7671 13.9598C16.526 13.5934 17.4391 13.3221 18.4823 13.1686C19.5471 13.0061 20.4248 12.8875 21.6407 12.8062L21.9482 12.6048L21.9868 12.2847C21.9868 11.7932 21.77 11.4545 21.3411 11.2546C20.9051 11.0605 20.2506 10.9638 19.3953 10.9638C18.8123 10.9565 18.0815 11.0824 17.3877 11.2489C16.6617 11.4228 16.4634 11.5373 16.1076 11.6502C15.943 11.7095 15.5471 11.7388 15.6949 11.0101L15.9558 9.86952C15.9558 9.86952 16.0843 9.00597 16.8978 8.81912C17.2905 8.72489 17.3532 8.70783 17.9956 8.60303C18.8645 8.46168 19.7238 8.39019 20.5855 8.39019C22.3289 8.39019 23.6049 8.63065 24.4112 9.1132C25.2223 9.59413 25.6343 10.3448 25.6311 11.3545L25.5925 11.9013L25.5122 12.4845ZM21.2488 14.9712C21.1227 14.9728 20.1558 15.0915 19.6652 15.1556C19.1159 15.2369 18.6413 15.3522 18.255 15.4928L17.3475 16.1443C17.1355 16.4286 17.0352 16.7918 17.0352 17.2532L17.4487 18.1029C17.7282 18.2695 18.1418 18.3507 18.6686 18.3507C19.0163 18.3507 19.3929 18.2605 19.788 18.0932L20.6288 17.6317L20.9621 17.1622C21.0938 16.6138 21.366 15.3993 21.3973 15.2482L21.2488 14.9712ZM6.20997 15.3758H5.59885C5.12826 15.3758 4.66891 15.7682 4.57254 16.2353L3.83694 19.6074C3.73335 20.0884 3.274 20.4702 2.80903 20.4702H0.66889C0.204724 20.4702 -0.0867837 20.077 0.0232349 19.6074L3.03228 5.72561C3.1423 5.24874 3.59763 4.86774 4.0618 4.8588L8.53241 4.85718C9.49768 4.86774 10.3337 4.92867 11.058 5.06921C11.7719 5.21218 12.3935 5.45265 12.9203 5.79384C13.4246 6.13098 13.8326 6.58185 14.0887 7.12857C14.3738 7.6753 14.4999 8.35932 14.4999 9.1725C14.4999 11.0337 13.778 12.5357 12.3108 13.6706C10.8548 14.8063 8.82793 15.3725 6.20997 15.3758ZM9.8181 8.17897C9.3989 7.89058 8.77573 7.7411 7.95581 7.7411L7.25555 7.74516C6.7962 7.7411 6.32641 8.13267 6.23647 8.60466L5.59082 11.5503C5.49043 12.0272 5.77712 12.4171 6.24209 12.4171H6.76488C7.9269 12.4171 8.82633 12.1677 9.47198 11.6632C10.1176 11.1636 10.4493 10.452 10.434 9.53157C10.4381 8.92473 10.2309 8.46737 9.8181 8.17897Z" transform="translate(10 6)" fill="url(#paint0_linear)"/>
</g>
<defs>
<filter id="filter0_d" x="0" y="0" width="126" height="46" filterUnits="userSpaceOnUse" color-interpolation-filters="sRGB">
<feFlood flood-opacity="0" result="BackgroundImageFix"/>
<feColorMatrix in="SourceAlpha" type="matrix" values="0 0 0 0 0 0 0 0 0 0 0 0 0 0 0 0 0 0 255 0"/>
<feOffset dy="4"/>
<feGaussianBlur stdDeviation="5"/>
<feColorMatrix type="matrix" values="0 0 0 0 0 0 0 0 0 0 0 0 0 0 0 0 0 0 0.7 0"/>
<feBlend mode="normal" in2="BackgroundImageFix" result="effect1_dropShadow"/>
<feBlend mode="normal" in="SourceGraphic" in2="effect1_dropShadow" result="shape"/>
</filter>
<linearGradient id="paint0_linear" x2="1" gradientUnits="userSpaceOnUse" gradientTransform="matrix(-140.133 0.404203 -0.0968828 -34.3723 140.182 16.7819)">
<stop stop-color="#FB8A00"/>
<stop offset="0.5" stop-color="#F11370"/>
<stop offset="1" stop-color="#1DA8EB"/>
</linearGradient>
</defs>
</svg>
