<svg width="31" height="32" viewBox="0 0 31 32" fill="none" xmlns="http://www.w3.org/2000/svg">
<g filter="url(#filter0_d)">
<path d="M14.5819 12.3898C13.4839 12.3898 12.5049 12.9182 11.8781 13.7353L6.633 10.7762C6.75579 10.4194 6.82329 10.035 6.82329 9.639C6.82329 9.2385 6.75579 8.85793 6.62914 8.49729L11.8704 5.54207C12.4926 6.363 13.4762 6.89593 14.5781 6.89593C16.4578 6.89593 17.9923 5.34986 17.9923 3.44764C17.9923 1.54543 16.4616 0 14.5781 0C12.6951 0 11.1645 1.54543 11.1645 3.44764C11.1645 3.84814 11.232 4.23257 11.3593 4.58936L6.12129 7.54457C5.499 6.71979 4.51607 6.19071 3.41357 6.19071C1.5345 6.19071 0 7.73679 0 9.639C0 11.5406 1.5345 13.0866 3.41743 13.0866C4.51993 13.0866 5.50286 12.5537 6.12964 11.7289L11.3709 14.6886C11.2442 15.0486 11.1729 15.4376 11.1729 15.8374C11.1729 17.7358 12.7029 19.2857 14.5864 19.2857C16.4694 19.2857 18 17.7396 18 15.8374C18 13.9359 16.4655 12.3898 14.5819 12.3898ZM14.5819 1.08514C15.8747 1.08514 16.9251 2.1465 16.9251 3.4515C16.9251 4.75714 15.8747 5.8185 14.5819 5.8185C13.2898 5.8185 12.2394 4.75714 12.2394 3.4515C12.2394 2.1465 13.2936 1.08514 14.5819 1.08514ZM3.41743 12.0054C2.12529 12.0054 1.07421 10.944 1.07421 9.639C1.07421 8.33336 2.12529 7.272 3.41743 7.272C4.71021 7.272 5.76064 8.33336 5.76064 9.639C5.76064 10.944 4.70571 12.0054 3.41743 12.0054ZM14.5819 18.2006C13.2898 18.2006 12.2394 17.1392 12.2394 15.8336C12.2394 14.5286 13.2898 13.4672 14.5819 13.4672C15.8747 13.4672 16.9251 14.5286 16.9251 15.8336C16.9251 17.1392 15.8747 18.2006 14.5819 18.2006Z" transform="translate(6.35693 4.35706)" fill="url(#paint0_linear)"/>
</g>
<defs>
<filter id="filter0_d" x="0.416744" y="0.792942" width="29.8804" height="31.1661" filterUnits="userSpaceOnUse" color-interpolation-filters="sRGB">
<feFlood flood-opacity="0" result="BackgroundImageFix"/>
<feColorMatrix in="SourceAlpha" type="matrix" values="0 0 0 0 0 0 0 0 0 0 0 0 0 0 0 0 0 0 255 0"/>
<feOffset dy="2.37608"/>
<feGaussianBlur stdDeviation="2.97009"/>
<feColorMatrix type="matrix" values="0 0 0 0 0 0 0 0 0 0 0 0 0 0 0 0 0 0 0.7 0"/>
<feBlend mode="normal" in2="BackgroundImageFix" result="effect1_dropShadow"/>
<feBlend mode="normal" in="SourceGraphic" in2="effect1_dropShadow" result="shape"/>
</filter>
<linearGradient id="paint0_linear" x2="1" gradientUnits="userSpaceOnUse" gradientTransform="translate(18 9.64286) scale(18 19.2857) rotate(180)">
<stop offset="0.2" stop-color="#B57F3A"/>
<stop offset="0.53" stop-color="#F5C176"/>
<stop offset="0.73" stop-color="#BF945D"/>
</linearGradient>
</defs>
</svg>
