<svg width="23" height="23" viewBox="0 0 23 23" fill="none" xmlns="http://www.w3.org/2000/svg">
<circle cx="11.5" cy="11.5" r="10.4" stroke="#ADADAD" stroke-width="2.2"/>
<path d="M6.42857 1.28571C6.42857 0.575634 7.00421 0 7.71429 0C8.42437 0 9 0.575634 9 1.28571V7.71429C9 8.42437 8.42437 9 7.71429 9C7.00421 9 6.42857 8.42437 6.42857 7.71429V1.28571Z" transform="translate(5 5)" fill="#ADADAD"/>
<path d="M1.28571 9C0.575634 9 3.10386e-08 8.42437 0 7.71429C-3.10386e-08 7.00421 0.575634 6.42857 1.28571 6.42857L7.71429 6.42857C8.42437 6.42857 9 7.00421 9 7.71429C9 8.42437 8.42437 9 7.71429 9H1.28571Z" transform="translate(5 5)" fill="#ADADAD"/>
</svg>
