<svg width="28" height="28" viewBox="0 0 28 28" fill="none" xmlns="http://www.w3.org/2000/svg">
<g filter="url(#filter0_d)">
<circle cx="10" cy="10" r="8.9" transform="translate(4)" stroke="white" stroke-width="2.2"/>
<path d="M5.59006 1.11801C5.59006 0.500551 6.09061 0 6.70807 0C7.32554 0 7.82609 0.500551 7.82609 1.11801V6.70807C7.82609 7.32554 7.32554 7.82609 6.70807 7.82609C6.09061 7.82609 5.59006 7.32554 5.59006 6.70807V1.11801Z" transform="translate(8.34784 4.3479)" fill="white"/>
<path d="M1.11801 7.82609C0.500551 7.82609 2.69901e-08 7.32554 0 6.70807C-2.69901e-08 6.09061 0.500551 5.59006 1.11801 5.59006L6.70807 5.59006C7.32554 5.59006 7.82609 6.09061 7.82609 6.70807C7.82609 7.32554 7.32554 7.82609 6.70807 7.82609H1.11801Z" transform="translate(8.34784 4.3479)" fill="white"/>
</g>
<defs>
<filter id="filter0_d" x="0" y="0" width="28" height="28" filterUnits="userSpaceOnUse" color-interpolation-filters="sRGB">
<feFlood flood-opacity="0" result="BackgroundImageFix"/>
<feColorMatrix in="SourceAlpha" type="matrix" values="0 0 0 0 0 0 0 0 0 0 0 0 0 0 0 0 0 0 255 0"/>
<feOffset dy="4"/>
<feGaussianBlur stdDeviation="2"/>
<feColorMatrix type="matrix" values="0 0 0 0 0 0 0 0 0 0 0 0 0 0 0 0 0 0 0.33 0"/>
<feBlend mode="normal" in2="BackgroundImageFix" result="effect1_dropShadow"/>
<feBlend mode="normal" in="SourceGraphic" in2="effect1_dropShadow" result="shape"/>
</filter>
</defs>
</svg>
