<svg width="36" height="36" viewBox="0 0 36 36" fill="none" xmlns="http://www.w3.org/2000/svg">
<g filter="url(#filter0_d)">
<path fill-rule="evenodd" clip-rule="evenodd" d="M15.8973 9.86267C16.7858 9.78467 17.1745 9.39933 17.8274 8.714C20.0713 6.356 20.003 2.712 19.999 2.48933C19.9917 2.07667 19.6652 1.74533 19.2644 1.74533L15.9575 1.74267V0.379334C15.9575 0.17 15.793 0 15.5896 0H4.41043C4.20772 0 4.04247 0.17 4.04247 0.379334V1.74267L0.735557 1.74533C0.335489 1.74533 0.00834407 2.07667 0.000984971 2.48933C-0.00302909 2.712 -0.0712686 6.356 2.17259 8.71333C2.82621 9.39933 3.21491 9.78467 4.10268 9.86267C4.44187 12.3147 6.22277 13.5673 8.52885 14.128V16.8487H6.66633C6.5459 16.8487 6.43284 16.91 6.3646 17.0113L4.74627 19.404C4.66799 19.5207 4.65863 19.6713 4.72218 19.7967C4.78574 19.922 4.91084 20 5.04799 20H14.954C15.1574 20 15.322 19.8307 15.322 19.6213C15.322 19.5293 15.2845 19.4547 15.2377 19.38L13.6361 17.0113C13.5672 16.91 13.4548 16.8487 13.3343 16.8487H11.4712V14.128C13.7772 13.5673 15.5581 12.3147 15.8973 9.86267ZM18.5165 3.262C18.4462 4.94067 18.0616 6.302 16.7777 7.65067C16.4232 8.02333 16.4145 8.246 15.9575 8.32667V3.25933L18.5165 3.262ZM1.48418 3.262L4.04247 3.25933V8.32667C3.58621 8.246 3.57818 8.024 3.2236 7.652C1.94245 6.30733 1.55643 4.942 1.48418 3.262Z" transform="translate(8 5)" fill="#4D4D51"/>
</g>
<defs>
<filter id="filter0_d" x="0.519255" y="0.511553" width="34.9615" height="34.9615" filterUnits="userSpaceOnUse" color-interpolation-filters="sRGB">
<feFlood flood-opacity="0" result="BackgroundImageFix"/>
<feColorMatrix in="SourceAlpha" type="matrix" values="0 0 0 0 0 0 0 0 0 0 0 0 0 0 0 0 0 0 255 0"/>
<feOffset dy="2.9923"/>
<feGaussianBlur stdDeviation="3.74037"/>
<feColorMatrix type="matrix" values="0 0 0 0 0 0 0 0 0 0 0 0 0 0 0 0 0 0 0.7 0"/>
<feBlend mode="normal" in2="BackgroundImageFix" result="effect1_dropShadow"/>
<feBlend mode="normal" in="SourceGraphic" in2="effect1_dropShadow" result="shape"/>
</filter>
</defs>
</svg>
