<svg width="58" height="58" viewBox="0 0 58 58" fill="none" xmlns="http://www.w3.org/2000/svg">
<g filter="url(#filter0_d)">
<path d="M33.3849 20.712C35.2494 20.548 36.0652 19.739 37.437 18.299C42.1495 13.348 42.006 5.695 41.998 5.228C41.982 4.361 41.2956 3.665 40.4546 3.665L33.5103 3.66V0.796C33.5103 0.357 33.1651 -2.17438e-07 32.7376 -2.17438e-07H9.2614C8.83491 -2.17438e-07 8.4897 0.357 8.4897 0.796V3.659L1.54539 3.665C0.703442 3.665 0.0170392 4.36 0.00198653 5.228C-0.00604158 5.695 -0.149544 13.348 4.56295 18.298C5.93375 19.739 6.75061 20.548 8.61514 20.712C9.32764 25.86 13.0677 28.492 17.9107 29.669V35.383H13.998C13.7461 35.383 13.5093 35.51 13.3648 35.724L9.96688 40.749C9.8023 40.993 9.78223 41.31 9.9157 41.573C10.0492 41.836 10.3131 42 10.6001 42C10.6001 42 31.4019 42 31.4029 42C31.8294 42 32.1746 41.644 32.1746 41.204C32.1746 41.012 32.0963 40.855 31.998 40.698L28.6352 35.723C28.4907 35.51 28.2549 35.383 28.002 35.383H24.0893V29.669C28.9323 28.492 32.6714 25.861 33.3849 20.712ZM38.8851 6.849C38.7366 10.375 37.9278 13.234 35.2323 16.067C34.4877 16.849 34.4697 17.317 33.5103 17.486V6.845L38.8851 6.849ZM3.11589 6.849L8.4897 6.845V17.486C7.53034 17.317 7.51328 16.85 6.76868 16.069C4.07826 13.246 3.26742 10.379 3.11589 6.849Z" transform="translate(8 5)" fill="#7C7C7C"/>
<path d="M33.3849 20.712C35.2494 20.548 36.0652 19.739 37.437 18.299C42.1495 13.348 42.006 5.695 41.998 5.228C41.982 4.361 41.2956 3.665 40.4546 3.665L33.5103 3.66V0.796C33.5103 0.357 33.1651 -2.17438e-07 32.7376 -2.17438e-07H9.2614C8.83491 -2.17438e-07 8.4897 0.357 8.4897 0.796V3.659L1.54539 3.665C0.703442 3.665 0.0170392 4.36 0.00198653 5.228C-0.00604158 5.695 -0.149544 13.348 4.56295 18.298C5.93375 19.739 6.75061 20.548 8.61514 20.712C9.32764 25.86 13.0677 28.492 17.9107 29.669V35.383H13.998C13.7461 35.383 13.5093 35.51 13.3648 35.724L9.96688 40.749C9.8023 40.993 9.78223 41.31 9.9157 41.573C10.0492 41.836 10.3131 42 10.6001 42C10.6001 42 31.4019 42 31.4029 42C31.8294 42 32.1746 41.644 32.1746 41.204C32.1746 41.012 32.0963 40.855 31.998 40.698L28.6352 35.723C28.4907 35.51 28.2549 35.383 28.002 35.383H24.0893V29.669C28.9323 28.492 32.6714 25.861 33.3849 20.712ZM38.8851 6.849C38.7366 10.375 37.9278 13.234 35.2323 16.067C34.4877 16.849 34.4697 17.317 33.5103 17.486V6.845L38.8851 6.849ZM3.11589 6.849L8.4897 6.845V17.486C7.53034 17.317 7.51328 16.85 6.76868 16.069C4.07826 13.246 3.26742 10.379 3.11589 6.849Z" transform="translate(8 5)" fill="url(#paint0_linear)" fill-opacity="0.34"/>
</g>
<defs>
<filter id="filter0_d" x="0.439758" y="0.463855" width="57.1205" height="57.1205" filterUnits="userSpaceOnUse" color-interpolation-filters="sRGB">
<feFlood flood-opacity="0" result="BackgroundImageFix"/>
<feColorMatrix in="SourceAlpha" type="matrix" values="0 0 0 0 0 0 0 0 0 0 0 0 0 0 0 0 0 0 255 0"/>
<feOffset dy="3.0241"/>
<feGaussianBlur stdDeviation="3.78012"/>
<feColorMatrix type="matrix" values="0 0 0 0 0 0 0 0 0 0 0 0 0 0 0 0 0 0 0.7 0"/>
<feBlend mode="normal" in2="BackgroundImageFix" result="effect1_dropShadow"/>
<feBlend mode="normal" in="SourceGraphic" in2="effect1_dropShadow" result="shape"/>
</filter>
<linearGradient id="paint0_linear" x2="1" gradientUnits="userSpaceOnUse" gradientTransform="translate(48.0019 23.9822) scale(48 47.9644) rotate(179.995)">
<stop stop-color="#4563F9"/>
<stop offset="1" stop-color="#1DA8EB"/>
</linearGradient>
</defs>
</svg>
