<svg width="31" height="20" viewBox="0 0 31 20" fill="none" xmlns="http://www.w3.org/2000/svg">
<path d="M29.8519 20H22.1696C21.5358 20 21.022 19.4729 21.022 18.8235V8.74235C21.022 8.09235 21.5358 7.56588 22.1696 7.56588H29.2778C30.229 7.56588 31 8.35588 31 9.33059V18.8235C31 19.4729 30.4856 20 29.8519 20ZM28.9063 14.5182C28.6871 14.2206 28.3214 13.9947 27.9804 13.8759C28.2117 13.7688 28.419 13.6141 28.5895 13.3765C28.8455 13.0312 28.9184 12.6865 28.9184 12.2941C28.9184 11.5212 28.6383 10.9976 28.2973 10.6765C27.8828 10.2724 27.164 9.97471 26.1651 9.97471C25.4952 9.97471 24.7036 10.1176 24.1065 10.7241C23.68 11.1524 23.3757 11.8541 23.3022 12.52H25.1054C25.1175 12.27 25.2271 11.9612 25.3976 11.7824C25.5561 11.6276 25.8121 11.5212 26.1284 11.5212C26.4332 11.5212 26.6766 11.6276 26.823 11.7588C26.9815 11.9018 27.0911 12.1276 27.0911 12.4012C27.0911 12.7224 26.9574 12.9718 26.7863 13.1147C26.5182 13.3288 26.0802 13.3406 25.97 13.3406H25.8609V14.6012H26.0067C26.2868 14.6012 26.7134 14.6253 27.0056 14.8512C27.2008 15.0059 27.3592 15.2794 27.3592 15.6124C27.3592 15.9335 27.2249 16.2424 27.0303 16.4212C26.8351 16.5994 26.5308 16.6947 26.2139 16.6947C25.8241 16.6947 25.5073 16.5641 25.3126 16.3735C25.0934 16.1594 24.947 15.7906 24.9229 15.4818H23.0468C23.1317 16.2782 23.4854 16.98 23.9481 17.4441C24.6668 18.1459 25.5319 18.2647 26.3236 18.2647C26.9815 18.2647 27.7731 18.1929 28.4678 17.5747C29.0401 17.0635 29.2841 16.3735 29.2841 15.7671C29.2841 15.3388 29.1498 14.8394 28.9063 14.5182ZM19.3245 20H11.6749C11.0412 20 10.5268 19.4729 10.5268 18.8235V1.76471C10.5268 0.79 11.2978 0 12.249 0H18.7504C19.7016 0 20.4726 0.79 20.4726 1.76471V18.8235C20.4726 19.4729 19.9588 20 19.3245 20ZM16.9249 3.24059H13.8914V4.78647H15.0488V11.1735H16.9249V3.24059ZM8.82983 20H1.14815C0.513796 20 0 19.4729 0 18.8235V7.15941C0 6.18471 0.770981 5.39471 1.72222 5.39471H8.82983C9.46419 5.39471 9.97798 5.92118 9.97798 6.57118V18.8235C9.97798 19.4729 9.46419 20 8.82983 20ZM8.22074 15.5729H5.41868L6.27176 14.7765C6.79531 14.2888 7.22185 13.8841 7.57491 13.4088C7.9647 12.8735 8.184 12.3618 8.184 11.66C8.184 10.8394 7.86711 10.1853 7.42909 9.75706C7.13631 9.48353 6.50311 9.00765 5.32109 9.00765C4.16376 9.00765 3.4697 9.42412 3.07991 9.82824C2.58046 10.34 2.30031 11.1247 2.23946 11.8147H4.11554C4.11554 11.5053 4.23724 11.0776 4.45654 10.8394C4.61498 10.6729 4.84633 10.5541 5.19939 10.5541C5.51628 10.5541 5.78437 10.6376 5.94281 10.78C6.13743 10.9582 6.25913 11.2676 6.25913 11.5653C6.25913 12.1124 5.95487 12.6235 5.77232 12.9088C5.51628 13.2894 4.87102 14.0624 4.44448 14.5265L2.00811 17.1194H8.22074V15.5729Z" fill="url(#paint0_linear)"/>
<path d="M29.8519 20H22.1696C21.5358 20 21.022 19.4729 21.022 18.8235V8.74235C21.022 8.09235 21.5358 7.56588 22.1696 7.56588H29.2778C30.229 7.56588 31 8.35588 31 9.33059V18.8235C31 19.4729 30.4856 20 29.8519 20ZM28.9063 14.5182C28.6871 14.2206 28.3214 13.9947 27.9804 13.8759C28.2117 13.7688 28.419 13.6141 28.5895 13.3765C28.8455 13.0312 28.9184 12.6865 28.9184 12.2941C28.9184 11.5212 28.6383 10.9976 28.2973 10.6765C27.8828 10.2724 27.164 9.97471 26.1651 9.97471C25.4952 9.97471 24.7036 10.1176 24.1065 10.7241C23.68 11.1524 23.3757 11.8541 23.3022 12.52H25.1054C25.1175 12.27 25.2271 11.9612 25.3976 11.7824C25.5561 11.6276 25.8121 11.5212 26.1284 11.5212C26.4332 11.5212 26.6766 11.6276 26.823 11.7588C26.9815 11.9018 27.0911 12.1276 27.0911 12.4012C27.0911 12.7224 26.9574 12.9718 26.7863 13.1147C26.5182 13.3288 26.0802 13.3406 25.97 13.3406H25.8609V14.6012H26.0067C26.2868 14.6012 26.7134 14.6253 27.0056 14.8512C27.2008 15.0059 27.3592 15.2794 27.3592 15.6124C27.3592 15.9335 27.2249 16.2424 27.0303 16.4212C26.8351 16.5994 26.5308 16.6947 26.2139 16.6947C25.8241 16.6947 25.5073 16.5641 25.3126 16.3735C25.0934 16.1594 24.947 15.7906 24.9229 15.4818H23.0468C23.1317 16.2782 23.4854 16.98 23.9481 17.4441C24.6668 18.1459 25.5319 18.2647 26.3236 18.2647C26.9815 18.2647 27.7731 18.1929 28.4678 17.5747C29.0401 17.0635 29.2841 16.3735 29.2841 15.7671C29.2841 15.3388 29.1498 14.8394 28.9063 14.5182ZM19.3245 20H11.6749C11.0412 20 10.5268 19.4729 10.5268 18.8235V1.76471C10.5268 0.79 11.2978 0 12.249 0H18.7504C19.7016 0 20.4726 0.79 20.4726 1.76471V18.8235C20.4726 19.4729 19.9588 20 19.3245 20ZM16.9249 3.24059H13.8914V4.78647H15.0488V11.1735H16.9249V3.24059ZM8.82983 20H1.14815C0.513796 20 0 19.4729 0 18.8235V7.15941C0 6.18471 0.770981 5.39471 1.72222 5.39471H8.82983C9.46419 5.39471 9.97798 5.92118 9.97798 6.57118V18.8235C9.97798 19.4729 9.46419 20 8.82983 20ZM8.22074 15.5729H5.41868L6.27176 14.7765C6.79531 14.2888 7.22185 13.8841 7.57491 13.4088C7.9647 12.8735 8.184 12.3618 8.184 11.66C8.184 10.8394 7.86711 10.1853 7.42909 9.75706C7.13631 9.48353 6.50311 9.00765 5.32109 9.00765C4.16376 9.00765 3.4697 9.42412 3.07991 9.82824C2.58046 10.34 2.30031 11.1247 2.23946 11.8147H4.11554C4.11554 11.5053 4.23724 11.0776 4.45654 10.8394C4.61498 10.6729 4.84633 10.5541 5.19939 10.5541C5.51628 10.5541 5.78437 10.6376 5.94281 10.78C6.13743 10.9582 6.25913 11.2676 6.25913 11.5653C6.25913 12.1124 5.95487 12.6235 5.77232 12.9088C5.51628 13.2894 4.87102 14.0624 4.44448 14.5265L2.00811 17.1194H8.22074V15.5729Z" fill="white"/>
<defs>
<linearGradient id="paint0_linear" x2="1" gradientUnits="userSpaceOnUse" gradientTransform="matrix(-69.75 7.72727 -14.7371 -132.245 54.3244 74.7588)">
<stop offset="0.165746" stop-color="#B57F3A"/>
<stop offset="0.497238" stop-color="#F5C176"/>
<stop offset="0.751381" stop-color="#BF945D"/>
</linearGradient>
</defs>
</svg>
