<svg width="196" height="34" viewBox="0 0 196 34" fill="none" xmlns="http://www.w3.org/2000/svg">
<path d="M12.3476 13.3027C10.9275 14.7557 9.62774 15.0313 8.66497 15.0313C6.69128 15.0313 5.53595 13.9791 5.19898 13.6284C4.4769 12.9019 3.80296 11.6743 3.80296 9.94572C3.80296 8.34238 4.42876 6.98956 5.31933 6.08768C6.16175 5.23591 7.24487 4.78497 8.59276 4.78497C10.3017 4.78497 11.5292 5.66179 12.3476 6.56367V2.10438C10.7831 1.40292 9.55553 1.17745 8.49648 1.17745C5.99327 1.17745 3.9233 2.15449 2.50321 3.58246C1.05905 5.03549 0 7.24008 0 9.87056C0 12.5511 1.05905 14.7557 2.50321 16.2088C3.8511 17.5866 5.84885 18.6388 8.80938 18.6388C9.77216 18.6388 10.9275 18.4885 12.3476 17.737V13.3027Z" transform="translate(44 8)" fill="white"/>
<path d="M18.4965 11.1482C18.5928 10.6472 18.8335 10.2463 19.0983 9.94572C19.4352 9.59499 19.9648 9.21921 20.8553 9.21921C21.5533 9.21921 22.1069 9.46973 22.4921 9.84551C22.9975 10.3466 23.166 11.048 23.1901 11.1482H18.4965ZM26.3913 12.9269C26.3913 11.5491 26.1506 9.79541 24.8749 8.39248C23.5511 6.93946 21.8181 6.71399 20.6146 6.71399C19.4112 6.71399 17.7985 6.96451 16.4988 8.31733C15.4157 9.46973 14.8621 11.1232 14.8621 12.7265C14.8621 14.5804 15.536 16.0585 16.4747 17.0355C17.7263 18.3382 19.1464 18.6388 20.7591 18.6388C21.9625 18.6388 23.1179 18.4635 24.1528 17.8121C24.7786 17.4113 25.7414 16.5846 26.2228 15.0063L22.9494 14.6555C22.6605 15.2818 22.2514 15.5574 22.2032 15.5825C21.8422 15.8079 21.3127 15.9081 20.8072 15.9081C20.2777 15.9081 19.5556 15.8079 19.0261 15.2067C18.5928 14.7056 18.3762 13.904 18.3762 13.3027H26.3913V12.9269Z" transform="translate(44 8)" fill="white"/>
<path d="M29.1322 0V18.263H32.5982V0H29.1322Z" transform="translate(44 8)" fill="white"/>
<path d="M38.9687 11.1482C39.0649 10.6472 39.3056 10.2463 39.5704 9.94572C39.9074 9.59499 40.4369 9.21921 41.3274 9.21921C42.0255 9.21921 42.579 9.46973 42.9642 9.84551C43.4696 10.3466 43.6381 11.048 43.6622 11.1482H38.9687ZM46.8634 12.9269C46.8634 11.5491 46.6227 9.79541 45.347 8.39248C44.0232 6.93946 42.2902 6.71399 41.0868 6.71399C39.8833 6.71399 38.2706 6.96451 36.9709 8.31733C35.8878 9.46973 35.3342 11.1232 35.3342 12.7265C35.3342 14.5804 36.0081 16.0585 36.9468 17.0355C38.1984 18.3382 39.6185 18.6388 41.2312 18.6388C42.4346 18.6388 43.59 18.4635 44.6249 17.8121C45.2507 17.4113 46.2135 16.5846 46.6949 15.0063L43.4215 14.6555C43.1326 15.2818 42.7235 15.5574 42.6753 15.5825C42.3143 15.8079 41.7848 15.9081 41.2793 15.9081C40.7498 15.9081 40.0277 15.8079 39.4982 15.2067C39.0649 14.7056 38.8483 13.904 38.8483 13.3027H46.8634V12.9269Z" transform="translate(44 8)" fill="white"/>
<path d="M49.6043 0V18.263H53.0703V16.9102C53.5998 17.7119 54.5626 18.6388 56.4641 18.6388C58.0526 18.6388 59.208 18.1127 60.1467 17.1106C61.2539 15.9582 61.8315 14.3549 61.8315 12.6263C61.8315 10.7724 61.1816 9.24426 60.1467 8.21712C59.208 7.29019 57.8841 6.71399 56.4159 6.71399C55.2365 6.71399 53.9368 7.11482 53.0703 8.34238V0H49.6043ZM55.5735 9.82046C56.2715 9.82046 56.8732 10.0209 57.4268 10.572C57.9323 11.0731 58.2693 11.7996 58.2693 12.7015C58.2693 13.5282 57.9323 14.2547 57.4268 14.7557C56.8973 15.2818 56.2234 15.5324 55.6216 15.5324C54.9718 15.5324 54.2015 15.2568 53.6479 14.7056C53.2388 14.3048 52.8537 13.6284 52.8537 12.7015C52.8537 11.7495 53.2147 11.0981 53.6239 10.6472C54.1775 10.0459 54.8273 9.82046 55.5735 9.82046Z" transform="translate(44 8)" fill="white"/>
<path d="M74.8184 2.8309C72.941 1.37787 71.1599 1.17745 70.0527 1.17745C68.5604 1.17745 67.2125 1.50313 66.0813 2.70564C65.1185 3.73278 64.6852 4.98539 64.6852 6.46347C64.6852 7.26513 64.8056 8.44259 65.648 9.36952C66.2738 10.071 67.1403 10.4217 67.8865 10.6973L69.2103 11.1733C69.6676 11.3486 70.6544 11.7244 71.0877 12.1002C71.4247 12.4008 71.6413 12.7516 71.6413 13.3027C71.6413 13.929 71.3765 14.38 71.0636 14.6555C70.5341 15.1315 69.8602 15.2317 69.3788 15.2317C68.6326 15.2317 67.9827 15.0313 67.3569 14.6305C66.9237 14.3549 66.2738 13.7787 65.8646 13.3528L63.9391 16.1086C64.5408 16.7349 65.4795 17.5115 66.2979 17.9374C67.3088 18.4635 68.3197 18.6388 69.475 18.6388C70.5341 18.6388 72.6041 18.4885 74.0241 16.9353C74.8666 16.0334 75.4442 14.5303 75.4442 12.8017C75.4442 11.8246 75.2035 10.6221 74.2648 9.6952C73.639 9.06889 72.7725 8.69311 72.0745 8.41754L70.8711 7.94154C69.7879 7.51566 69.2344 7.36534 68.8492 6.98956C68.6085 6.76409 68.4882 6.46347 68.4882 6.06263C68.4882 5.63674 68.6567 5.26096 68.8974 5.01044C69.3306 4.50939 69.9564 4.43424 70.4619 4.43424C70.9192 4.43424 71.9542 4.50939 73.1577 5.63674L74.8184 2.8309Z" transform="translate(44 8)" fill="white"/>
<path d="M90.2663 12.6764C90.2663 11.2484 89.7367 9.64509 88.6536 8.51775C87.6908 7.51566 86.0541 6.71399 83.9601 6.71399C81.8661 6.71399 80.2293 7.51566 79.2666 8.51775C78.1834 9.64509 77.6539 11.2484 77.6539 12.6764C77.6539 14.1044 78.1834 15.7077 79.2666 16.8351C80.2293 17.8372 81.8661 18.6388 83.9601 18.6388C86.0541 18.6388 87.6908 17.8372 88.6536 16.8351C89.7367 15.7077 90.2663 14.1044 90.2663 12.6764ZM83.9601 9.77035C84.7544 9.77035 85.4043 10.0459 85.9097 10.572C86.4152 11.0981 86.704 11.7745 86.704 12.6764C86.704 13.5783 86.4152 14.2547 85.9097 14.7808C85.4043 15.3069 84.7544 15.5825 83.9842 15.5825C83.0695 15.5825 82.4437 15.2317 82.0105 14.7808C81.6013 14.3549 81.2162 13.7035 81.2162 12.6764C81.2162 11.7745 81.505 11.0981 82.0105 10.572C82.5159 10.0459 83.1658 9.77035 83.9601 9.77035Z" transform="translate(44 8)" fill="white"/>
<path d="M100.972 7.34029C100.058 6.88935 99.1911 6.71399 98.2524 6.71399C96.7842 6.71399 95.3641 7.11482 94.1606 8.29227C93.1497 9.29436 92.3795 10.7975 92.3795 12.7015C92.3795 14.7307 93.246 16.1336 94.0643 16.9603C95.0512 17.9624 96.4231 18.6388 98.2283 18.6388C99.1911 18.6388 100.058 18.4885 100.972 17.9624V14.7056C100.178 15.4071 99.3596 15.5825 98.7578 15.5825C97.9876 15.5825 97.1933 15.2818 96.6638 14.6806C96.2306 14.2046 95.9417 13.5031 95.9417 12.6764C95.9417 11.7745 96.2787 11.048 96.736 10.572C96.9767 10.3215 97.6266 9.77035 98.7097 9.77035C99.2633 9.77035 100.13 9.89562 100.972 10.6221V7.34029Z" transform="translate(44 8)" fill="white"/>
<path d="M103.997 7.08977V18.263H107.463V7.08977H103.997ZM103.708 2.32985C103.708 3.50731 104.599 4.43424 105.73 4.43424C106.861 4.43424 107.752 3.50731 107.752 2.32985C107.752 1.1524 106.861 0.225468 105.73 0.225468C104.599 0.225468 103.708 1.1524 103.708 2.32985Z" transform="translate(44 8)" fill="white"/>
<path d="M119.121 8.34238C118.134 6.93946 116.666 6.71399 115.752 6.71399C114.259 6.71399 112.96 7.26513 112.021 8.24217C111.034 9.26931 110.36 10.8727 110.36 12.7516C110.36 14.2296 110.793 15.6827 111.925 16.9353C113.104 18.238 114.404 18.6388 115.944 18.6388C116.835 18.6388 118.183 18.4134 119.121 16.9102V18.263H122.587V7.08977H119.121V8.34238ZM116.618 9.82046C117.244 9.82046 118.014 10.071 118.544 10.5971C119.049 11.0981 119.338 11.8497 119.338 12.6514C119.338 13.6033 118.953 14.3048 118.495 14.7557C118.038 15.2317 117.388 15.5324 116.69 15.5324C115.872 15.5324 115.126 15.1816 114.644 14.6555C114.331 14.3048 113.922 13.6534 113.922 12.6514C113.922 11.6493 114.356 10.9979 114.717 10.6221C115.174 10.1461 115.872 9.82046 116.618 9.82046Z" transform="translate(44 8)" fill="white"/>
<path d="M125.852 0V18.263H129.318V0H125.852Z" transform="translate(44 8)" fill="white"/>
<path d="M132.68 0V18.263H136.146V0H132.68Z" transform="translate(44 8)" fill="white"/>
<path d="M139.46 24H143.359L152 7.08977H148.101L145.14 13.1524L142.107 7.08977H138.112L143.239 16.8351L139.46 24Z" transform="translate(44 8)" fill="white"/>
<path d="M34 26.1943L23.7431 33.1458L13.4864 26.1943L22.9503 19.7801L13.4864 13.3659L23.7431 6.41425L34 13.3659L24.5358 19.7801L34 26.1943ZM20.5133 19.7801L10.2567 26.7316L6.59096e-08 19.7801L9.46391 13.3659L6.59096e-08 6.95161L10.2567 0L20.5133 6.95161L11.0494 13.3659L20.5133 19.7801Z" transform="translate(0 0.375)" fill="url(#paint0_linear)"/>
<defs>
<linearGradient id="paint0_linear" x2="1" gradientUnits="userSpaceOnUse" gradientTransform="matrix(-37.0222 -38.8956 40.5193 -36.6375 15.6292 57.2144)">
<stop stop-color="#89CA70"/>
<stop offset="0.41304" stop-color="#1DA8EB"/>
<stop offset="0.710504" stop-color="#F11370"/>
<stop offset="1" stop-color="#FB8A00"/>
</linearGradient>
</defs>
</svg>
