<svg width="43" height="43" viewBox="0 0 43 43" fill="none" xmlns="http://www.w3.org/2000/svg">
<g filter="url(#filter0_d)">
<path d="M26.1901 18.3557C26.7589 17.65 27.032 16.8934 26.997 16.1141C26.9627 15.2556 26.5675 14.5843 26.2422 14.1719C26.6196 13.257 26.7651 11.8174 25.5046 10.6994C24.5811 9.88077 23.0126 9.51382 20.8402 9.61568C19.3129 9.68318 18.0352 9.95993 17.9825 9.97098H17.9769C17.6867 10.0219 17.3786 10.0839 17.0651 10.152C17.0417 9.79057 17.1056 8.89282 17.791 6.8715C18.6041 4.46605 18.5575 2.62514 17.64 1.3948C16.676 0.101863 15.1363 0 14.6835 0C14.2478 0 13.8471 0.174886 13.5623 0.497045C12.918 1.22543 12.9935 2.56868 13.0745 3.1903C12.308 5.18891 10.159 10.0894 8.34076 11.4505C8.30578 11.4732 8.27694 11.5014 8.2481 11.5296C7.71361 12.077 7.35339 12.6698 7.10916 13.1895C6.76674 13.0085 6.37769 12.9072 5.95918 12.9072H2.41656C1.08003 12.9072 0 13.9627 0 15.2556V24.4307C0 25.7298 1.08616 26.7797 2.41656 26.7797H5.95918C6.47649 26.7797 6.9582 26.6214 7.3534 26.3508L8.71816 26.5085C8.92741 26.5367 12.6449 26.9945 16.4606 26.9208C17.1522 26.9718 17.8027 27 18.4065 27C19.4466 27 20.3524 26.9208 21.1078 26.7625C22.8849 26.3956 24.0987 25.6617 24.7148 24.5835C25.1849 23.7588 25.1849 22.9402 25.1094 22.421C26.2655 21.4049 26.4687 20.2813 26.4282 19.4903C26.4048 19.0332 26.3005 18.6435 26.1901 18.3557ZM2.41656 25.2554C1.94589 25.2554 1.5685 24.8823 1.5685 24.4307V15.2501C1.5685 14.7929 1.95141 14.426 2.41656 14.426H5.95918C6.42985 14.426 6.80725 14.7985 6.80725 15.2501V24.4252C6.80725 24.8823 6.42433 25.2499 5.95918 25.2499H2.41656V25.2554ZM24.7032 17.6948C24.459 17.9433 24.4123 18.322 24.5983 18.6153C24.5983 18.6208 24.8363 19.016 24.8658 19.5584C24.9063 20.2979 24.5406 20.9526 23.7735 21.5116C23.5004 21.7154 23.3906 22.0651 23.5066 22.3812C23.5066 22.3867 23.7563 23.1322 23.3495 23.8379C22.9604 24.5154 22.0952 25.0014 20.7826 25.272C19.7308 25.4923 18.3022 25.5322 16.5477 25.3966C16.525 25.3966 16.4956 25.3966 16.4667 25.3966C12.7321 25.4757 8.95625 25.0014 8.91575 24.9959H8.91023L8.32358 24.9278C8.35794 24.7694 8.37574 24.6001 8.37574 24.4307V15.2501C8.37574 15.0077 8.33524 14.7702 8.26528 14.5499C8.3696 14.1719 8.66047 13.3306 9.34592 12.6133C11.9533 10.6036 14.5037 3.82234 14.6135 3.52902C14.6602 3.40998 14.6718 3.2805 14.6485 3.15041C14.5497 2.51836 14.5847 1.74457 14.724 1.51323C15.032 1.51875 15.8629 1.60343 16.3624 2.27536C16.9546 3.07125 16.9313 4.49427 16.2925 6.37998C15.3168 9.25425 15.2351 10.7675 16.0077 11.4333C16.3913 11.7665 16.9024 11.7837 17.2743 11.6536C17.6284 11.5744 17.9653 11.5069 18.285 11.456C18.3077 11.4505 18.3372 11.4449 18.3605 11.4394C20.1431 11.0608 23.3378 10.8295 24.4473 11.8119C25.388 12.6477 24.7204 13.754 24.6449 13.8725C24.4301 14.1891 24.4939 14.6009 24.7842 14.8549C24.7903 14.8604 25.3997 15.4195 25.4291 16.1705C25.4525 16.6731 25.2082 17.1867 24.7032 17.6948Z" transform="translate(8 5)" fill="#7C7C7C"/>
<path d="M26.1901 18.3557C26.7589 17.65 27.032 16.8934 26.997 16.1141C26.9627 15.2556 26.5675 14.5843 26.2422 14.1719C26.6196 13.257 26.7651 11.8174 25.5046 10.6994C24.5811 9.88077 23.0126 9.51382 20.8402 9.61568C19.3129 9.68318 18.0352 9.95993 17.9825 9.97098H17.9769C17.6867 10.0219 17.3786 10.0839 17.0651 10.152C17.0417 9.79057 17.1056 8.89282 17.791 6.8715C18.6041 4.46605 18.5575 2.62514 17.64 1.3948C16.676 0.101863 15.1363 0 14.6835 0C14.2478 0 13.8471 0.174886 13.5623 0.497045C12.918 1.22543 12.9935 2.56868 13.0745 3.1903C12.308 5.18891 10.159 10.0894 8.34076 11.4505C8.30578 11.4732 8.27694 11.5014 8.2481 11.5296C7.71361 12.077 7.35339 12.6698 7.10916 13.1895C6.76674 13.0085 6.37769 12.9072 5.95918 12.9072H2.41656C1.08003 12.9072 0 13.9627 0 15.2556V24.4307C0 25.7298 1.08616 26.7797 2.41656 26.7797H5.95918C6.47649 26.7797 6.9582 26.6214 7.3534 26.3508L8.71816 26.5085C8.92741 26.5367 12.6449 26.9945 16.4606 26.9208C17.1522 26.9718 17.8027 27 18.4065 27C19.4466 27 20.3524 26.9208 21.1078 26.7625C22.8849 26.3956 24.0987 25.6617 24.7148 24.5835C25.1849 23.7588 25.1849 22.9402 25.1094 22.421C26.2655 21.4049 26.4687 20.2813 26.4282 19.4903C26.4048 19.0332 26.3005 18.6435 26.1901 18.3557ZM2.41656 25.2554C1.94589 25.2554 1.5685 24.8823 1.5685 24.4307V15.2501C1.5685 14.7929 1.95141 14.426 2.41656 14.426H5.95918C6.42985 14.426 6.80725 14.7985 6.80725 15.2501V24.4252C6.80725 24.8823 6.42433 25.2499 5.95918 25.2499H2.41656V25.2554ZM24.7032 17.6948C24.459 17.9433 24.4123 18.322 24.5983 18.6153C24.5983 18.6208 24.8363 19.016 24.8658 19.5584C24.9063 20.2979 24.5406 20.9526 23.7735 21.5116C23.5004 21.7154 23.3906 22.0651 23.5066 22.3812C23.5066 22.3867 23.7563 23.1322 23.3495 23.8379C22.9604 24.5154 22.0952 25.0014 20.7826 25.272C19.7308 25.4923 18.3022 25.5322 16.5477 25.3966C16.525 25.3966 16.4956 25.3966 16.4667 25.3966C12.7321 25.4757 8.95625 25.0014 8.91575 24.9959H8.91023L8.32358 24.9278C8.35794 24.7694 8.37574 24.6001 8.37574 24.4307V15.2501C8.37574 15.0077 8.33524 14.7702 8.26528 14.5499C8.3696 14.1719 8.66047 13.3306 9.34592 12.6133C11.9533 10.6036 14.5037 3.82234 14.6135 3.52902C14.6602 3.40998 14.6718 3.2805 14.6485 3.15041C14.5497 2.51836 14.5847 1.74457 14.724 1.51323C15.032 1.51875 15.8629 1.60343 16.3624 2.27536C16.9546 3.07125 16.9313 4.49427 16.2925 6.37998C15.3168 9.25425 15.2351 10.7675 16.0077 11.4333C16.3913 11.7665 16.9024 11.7837 17.2743 11.6536C17.6284 11.5744 17.9653 11.5069 18.285 11.456C18.3077 11.4505 18.3372 11.4449 18.3605 11.4394C20.1431 11.0608 23.3378 10.8295 24.4473 11.8119C25.388 12.6477 24.7204 13.754 24.6449 13.8725C24.4301 14.1891 24.4939 14.6009 24.7842 14.8549C24.7903 14.8604 25.3997 15.4195 25.4291 16.1705C25.4525 16.6731 25.2082 17.1867 24.7032 17.6948Z" transform="translate(8 5)" fill="url(#paint0_linear)" fill-opacity="0.4"/>
<path d="M25.5378 10.6619L25.5378 10.662C26.8078 11.7885 26.6731 13.2367 26.2995 14.1639C26.6248 14.5827 27.0126 15.255 27.047 16.1119L25.5378 10.6619ZM25.5378 10.6619C24.5994 9.83018 23.0143 9.4637 20.838 9.56573C19.3415 9.63187 18.0843 9.89829 17.9778 9.92086C17.9776 9.9209 17.9774 9.92094 17.9772 9.92098H17.9769V9.92021L17.9683 9.92173C17.6951 9.96967 17.4063 10.0273 17.1122 10.0906M25.5378 10.6619L17.1122 10.0906M17.1122 10.0906C17.1002 9.70329 17.1886 8.8037 17.8384 6.88756L17.8384 6.88751C18.6532 4.47692 18.6125 2.61529 17.6801 1.36491C16.7012 0.051984 15.1399 -0.05 14.6835 -0.05C14.234 -0.05 13.8195 0.130611 13.5249 0.463917C13.1925 0.839626 13.0486 1.36995 12.9967 1.87863C12.9453 2.38166 12.9831 2.87065 13.0233 3.18417C12.6394 4.18386 11.9136 5.89974 11.0577 7.53629C10.6281 8.35779 10.1661 9.15851 9.6985 9.83833C9.23082 10.5183 8.75972 11.074 8.31209 11.4095C8.27357 11.4347 8.24215 11.4655 8.21451 11.4925L8.21313 11.4939L8.21312 11.4939L8.21233 11.4947C7.68909 12.0305 7.33166 12.6092 7.08614 13.1214C6.74799 12.9516 6.36714 12.8572 5.95918 12.8572H2.41656C1.05369 12.8572 -0.05 13.9338 -0.05 15.2556V24.4307C-0.05 25.7588 1.05998 26.8297 2.41656 26.8297H5.95918C6.48004 26.8297 6.96573 26.6723 7.36612 26.4026L8.71147 26.558C8.71163 26.5581 8.71179 26.5581 8.71195 26.5581C8.92735 26.5871 12.6436 27.0443 16.4593 26.9709C17.1509 27.0218 17.8018 27.05 18.4065 27.05C19.4489 27.05 20.3582 26.9707 21.1179 26.8115C22.9025 26.443 24.1323 25.7038 24.7583 24.6083L24.7583 24.6083C25.2276 23.7848 25.2353 22.9678 25.1627 22.4407C26.3146 21.4172 26.519 20.2862 26.4781 19.4878C26.4552 19.0386 26.3551 18.6538 26.2469 18.3647C26.8099 17.6576 27.0822 16.8972 27.047 16.1121L17.1122 10.0906ZM24.6675 17.6598L24.6677 17.6596C25.1671 17.1571 25.4016 16.6564 25.3792 16.1729L25.3792 16.1725C25.3649 15.8097 25.2104 15.4911 25.0564 15.2609C24.9796 15.1461 24.9034 15.0542 24.8463 14.9906C24.8177 14.9589 24.7939 14.9343 24.7771 14.9176C24.7688 14.9092 24.7622 14.9029 24.7576 14.8985C24.7534 14.8945 24.751 14.8923 24.7508 14.8921L24.7507 14.8921L24.7842 14.8549L24.7513 14.8925C24.4433 14.623 24.3738 14.1837 24.6031 13.8451M24.6675 17.6598L24.4473 11.8119M24.6675 17.6598C24.4085 17.9233 24.3575 18.3256 24.554 18.6388M24.6675 17.6598L23.7735 21.5116M24.6031 13.8451C24.6032 13.8448 24.6034 13.8446 24.6035 13.8444L24.6449 13.8725L24.6027 13.8456C24.6028 13.8454 24.603 13.8452 24.6031 13.8451ZM24.6031 13.8451C24.6402 13.7868 24.8207 13.4883 24.8777 13.1038C24.9346 12.7207 24.8691 12.2536 24.4141 11.8493M24.4141 11.8493L24.4473 11.8119M24.4141 11.8493C24.1457 11.6116 23.7473 11.4444 23.2677 11.3347C22.7888 11.2252 22.2335 11.174 21.6556 11.1653C20.4999 11.1477 19.2596 11.2996 18.3714 11.4882M24.4141 11.8493C24.4141 11.8493 24.4141 11.8493 24.4141 11.8493L24.4473 11.8119M24.4473 11.8119L18.3714 11.4882M18.3714 11.4882C18.3716 11.4882 18.3718 11.4881 18.372 11.4881L18.3605 11.4394L18.3709 11.4883C18.3711 11.4883 18.3712 11.4882 18.3714 11.4882ZM18.3714 11.4882C18.3599 11.4909 18.347 11.4936 18.3349 11.4962L18.3328 11.4966C18.3195 11.4994 18.3073 11.502 18.2968 11.5046L18.2929 11.5055L18.2929 11.5054C17.9753 11.5559 17.6404 11.623 17.288 11.7017M18.3714 11.4882L18.285 11.456C17.9653 11.5069 17.6284 11.5744 17.2743 11.6536M17.288 11.7017C17.289 11.7014 17.2899 11.7011 17.2908 11.7008L17.2743 11.6536M17.288 11.7017C16.9038 11.8352 16.3743 11.8179 15.975 11.4711C15.5717 11.1235 15.3984 10.5597 15.4446 9.73202C15.4907 8.90426 15.7569 7.80218 16.2451 6.36391C16.5635 5.42409 16.7275 4.60226 16.7391 3.91815C16.7506 3.23379 16.6096 2.69129 16.3223 2.30521L16.3223 2.30519C15.8528 1.67359 15.0786 1.57457 14.7534 1.56399C14.7287 1.61515 14.7065 1.69061 14.6887 1.78687C14.6679 1.89896 14.6537 2.03474 14.6469 2.18384C14.6332 2.48194 14.649 2.82982 14.6978 3.14217C14.7225 3.28058 14.7102 3.41911 14.6602 3.54688C14.6042 3.69643 13.9388 5.46572 12.9612 7.44963C12.472 8.4423 11.9043 9.48952 11.2953 10.4148C10.6877 11.3379 10.0368 12.143 9.37947 12.6506C8.71242 13.35 8.42385 14.1688 8.31742 14.5491C8.38606 14.7698 8.42574 15.0074 8.42574 15.2501V24.4307C8.42574 24.5844 8.41138 24.7383 8.38345 24.8844L8.91312 24.9459H8.91575H8.92257L8.92251 24.9463C8.96191 24.9517 12.7348 25.4257 16.4657 25.3466L16.4667 25.3466L16.4669 25.3466H16.4671H16.4673H16.4674H16.4676H16.4678H16.4679H16.4681H16.4683H16.4684H16.4686H16.4688H16.4689H16.4691H16.4693H16.4694H16.4696H16.4698H16.47H16.4701H16.4703H16.4705H16.4706H16.4708H16.471H16.4711H16.4713H16.4715H16.4717H16.4718H16.472H16.4722H16.4723H16.4725H16.4727H16.4728H16.473H16.4732H16.4733H16.4735H16.4737H16.4739H16.474H16.4742H16.4744H16.4745H16.4747H16.4749H16.475H16.4752H16.4754H16.4755H16.4757H16.4759H16.4761H16.4762H16.4764H16.4766H16.4767H16.4769H16.4771H16.4772H16.4774H16.4776H16.4777H16.4779H16.4781H16.4783H16.4784H16.4786H16.4788H16.4789H16.4791H16.4793H16.4794H16.4796H16.4798H16.4799H16.4801H16.4803H16.4804H16.4806H16.4808H16.481H16.4811H16.4813H16.4815H16.4816H16.4818H16.482H16.4821H16.4823H16.4825H16.4826H16.4828H16.483H16.4832H16.4833H16.4835H16.4837H16.4838H16.484H16.4842H16.4843H16.4845H16.4847H16.4848H16.485H16.4852H16.4853H16.4855H16.4857H16.4859H16.486H16.4862H16.4864H16.4865H16.4867H16.4869H16.487H16.4872H16.4874H16.4875H16.4877H16.4879H16.488H16.4882H16.4884H16.4885H16.4887H16.4889H16.489H16.4892H16.4894H16.4896H16.4897H16.4899H16.4901H16.4902H16.4904H16.4906H16.4907H16.4909H16.4911H16.4912H16.4914H16.4916H16.4917H16.4919H16.4921H16.4922H16.4924H16.4926H16.4927H16.4929H16.4931H16.4932H16.4934H16.4936H16.4937H16.4939H16.4941H16.4942H16.4944H16.4946H16.4947H16.4949H16.4951H16.4952H16.4954H16.4956H16.4957H16.4959H16.4961H16.4962H16.4964H16.4966H16.4967H16.4969H16.4971H16.4972H16.4974H16.4976H16.4977H16.4979H16.4981H16.4982H16.4984H16.4986H16.4987H16.4989H16.4991H16.4992H16.4994H16.4996H16.4997H16.4999H16.5001H16.5002H16.5004H16.5006H16.5007H16.5009H16.501H16.5012H16.5014H16.5015H16.5017H16.5019H16.502H16.5022H16.5024H16.5025H16.5027H16.5029H16.503H16.5032H16.5034H16.5035H16.5037H16.5038H16.504H16.5042H16.5043H16.5045H16.5047H16.5048H16.505H16.5052H16.5053H16.5055H16.5056H16.5058H16.506H16.5061H16.5063H16.5065H16.5066H16.5068H16.5069H16.5071H16.5073H16.5074H16.5076H16.5078H16.5079H16.5081H16.5083H16.5084H16.5086H16.5087H16.5089H16.5091H16.5092H16.5094H16.5095H16.5097H16.5099H16.51H16.5102H16.5104H16.5105H16.5107H16.5108H16.511H16.5112H16.5113H16.5115H16.5116H16.5118H16.512H16.5121H16.5123H16.5124H16.5126H16.5128H16.5129H16.5131H16.5132H16.5134H16.5136H16.5137H16.5139H16.514H16.5142H16.5144H16.5145H16.5147H16.5148H16.515H16.5152H16.5153H16.5155H16.5156H16.5158H16.516H16.5161H16.5163H16.5164H16.5166H16.5168H16.5169H16.5171H16.5172H16.5174H16.5175H16.5177H16.5179H16.518H16.5182H16.5183H16.5185H16.5186H16.5188H16.519H16.5191H16.5193H16.5194H16.5196H16.5197H16.5199H16.5201H16.5202H16.5204H16.5205H16.5207H16.5208H16.521H16.5212H16.5213H16.5215H16.5216H16.5218H16.5219H16.5221H16.5222H16.5224H16.5225H16.5227H16.5229H16.523H16.5232H16.5233H16.5235H16.5236H16.5238H16.5239H16.5241H16.5242H16.5244H16.5246H16.5247H16.5249H16.525H16.5252H16.5253H16.5255H16.5256H16.5258H16.5259H16.5261H16.5262H16.5264H16.5265H16.5267H16.5268H16.527H16.5272H16.5273H16.5275H16.5276H16.5278H16.5279H16.5281H16.5282H16.5284H16.5285H16.5287H16.5288H16.529H16.5291H16.5293H16.5294H16.5296H16.5297H16.5299H16.53H16.5302H16.5303H16.5305H16.5306H16.5308H16.5309H16.5311H16.5312H16.5314H16.5315H16.5317H16.5318H16.532H16.5321H16.5323H16.5324H16.5325H16.5327H16.5328H16.533H16.5331H16.5333H16.5334H16.5336H16.5337H16.5339H16.534H16.5342H16.5343H16.5345H16.5346H16.5347H16.5349H16.535H16.5352H16.5353H16.5355H16.5356H16.5358H16.5359H16.5361H16.5362H16.5363H16.5365H16.5366H16.5368H16.5369H16.5371H16.5372H16.5374H16.5375H16.5376H16.5378H16.5379H16.5381H16.5382H16.5384H16.5385H16.5386H16.5388H16.5389H16.5391H16.5392H16.5394H16.5395H16.5396H16.5398H16.5399H16.5401H16.5402H16.5403H16.5405H16.5406H16.5408H16.5409H16.541H16.5412H16.5413H16.5415H16.5416H16.5417H16.5419H16.542H16.5422H16.5423H16.5424H16.5426H16.5427H16.5429H16.543H16.5431H16.5433H16.5434H16.5436H16.5437H16.5438H16.544H16.5441H16.5442H16.5444H16.5445H16.5446H16.5448H16.5449H16.5451H16.5452H16.5453H16.5455H16.5456H16.5457H16.5459H16.546H16.5461H16.5463H16.5464H16.5465H16.5467H16.5468H16.5469H16.5471H16.5472H16.5473H16.5475H16.5476H16.5477H16.5516L16.5516 25.3467C18.304 25.4822 19.7272 25.442 20.7723 25.2231L20.7725 25.223C22.0804 24.9534 22.9279 24.4717 23.3061 23.813L23.3062 23.813C23.5035 23.4707 23.542 23.1181 23.5306 22.8491C23.525 22.7147 23.5069 22.6017 23.4903 22.5221C23.482 22.4823 23.4741 22.451 23.4682 22.4295C23.4653 22.4187 23.4629 22.4104 23.4613 22.4047L23.4592 22.3977L23.4588 22.396M17.288 11.7017C17.2871 11.7019 17.2862 11.7022 17.2852 11.7024L17.2743 11.6536M17.2743 11.6536C16.9024 11.7837 16.3913 11.7665 16.0077 11.4333C15.2351 10.7675 15.3168 9.25425 16.2925 6.37998C16.9313 4.49427 16.9546 3.07125 16.3624 2.27536C15.8629 1.60343 15.032 1.51875 14.724 1.51323C14.5847 1.74457 14.5497 2.51836 14.6485 3.15041C14.6718 3.2805 14.6602 3.40998 14.6135 3.52902C14.5037 3.82234 11.9533 10.6036 9.34592 12.6133C8.66047 13.3306 8.3696 14.1719 8.26528 14.5499C8.33524 14.7702 8.37574 15.0077 8.37574 15.2501V24.4307L23.4588 22.396M23.7735 21.5116C24.5406 20.9526 24.9063 20.2979 24.8658 19.5584C24.8392 19.0682 24.6421 18.6982 24.6045 18.6275C24.6005 18.6199 24.5983 18.6158 24.5983 18.6153H24.5483C24.5483 18.6234 24.5503 18.6297 24.5506 18.6306L24.5507 18.6306L24.5523 18.635L24.554 18.6388M23.7735 21.5116C23.5004 21.7154 23.3906 22.0651 23.5066 22.3812L23.7735 21.5116ZM24.554 18.6388L24.554 18.6388L24.5567 18.6441L24.5644 18.6585C24.5708 18.6707 24.58 18.6882 24.5911 18.7108C24.6133 18.7559 24.6433 18.8213 24.6742 18.9032C24.7362 19.0671 24.8015 19.2964 24.8159 19.5611L24.8159 19.5612C24.8552 20.2789 24.5018 20.919 23.7441 21.4712L23.7436 21.4716C23.4542 21.6875 23.3363 22.059 23.4588 22.396M24.554 18.6388L23.4588 22.396M2.41656 25.1999H2.36656V25.2039C1.94615 25.1787 1.6185 24.8377 1.6185 24.4307V15.2501C1.6185 14.8221 1.97746 14.476 2.41656 14.476H5.95918C6.40337 14.476 6.75725 14.8272 6.75725 15.2501V24.4252C6.75725 24.8532 6.39823 25.1999 5.95918 25.1999H2.41656Z" transform="translate(8 5)" stroke="#7C7C7C" stroke-width="0.1"/>
<path d="M25.5378 10.6619L25.5378 10.662C26.8078 11.7885 26.6731 13.2367 26.2995 14.1639C26.6248 14.5827 27.0126 15.255 27.047 16.1119L25.5378 10.6619ZM25.5378 10.6619C24.5994 9.83018 23.0143 9.4637 20.838 9.56573C19.3415 9.63187 18.0843 9.89829 17.9778 9.92086C17.9776 9.9209 17.9774 9.92094 17.9772 9.92098H17.9769V9.92021L17.9683 9.92173C17.6951 9.96967 17.4063 10.0273 17.1122 10.0906M25.5378 10.6619L17.1122 10.0906M17.1122 10.0906C17.1002 9.70329 17.1886 8.8037 17.8384 6.88756L17.8384 6.88751C18.6532 4.47692 18.6125 2.61529 17.6801 1.36491C16.7012 0.051984 15.1399 -0.05 14.6835 -0.05C14.234 -0.05 13.8195 0.130611 13.5249 0.463917C13.1925 0.839626 13.0486 1.36995 12.9967 1.87863C12.9453 2.38166 12.9831 2.87065 13.0233 3.18417C12.6394 4.18386 11.9136 5.89974 11.0577 7.53629C10.6281 8.35779 10.1661 9.15851 9.6985 9.83833C9.23082 10.5183 8.75972 11.074 8.31209 11.4095C8.27357 11.4347 8.24215 11.4655 8.21451 11.4925L8.21313 11.4939L8.21312 11.4939L8.21233 11.4947C7.68909 12.0305 7.33166 12.6092 7.08614 13.1214C6.74799 12.9516 6.36714 12.8572 5.95918 12.8572H2.41656C1.05369 12.8572 -0.05 13.9338 -0.05 15.2556V24.4307C-0.05 25.7588 1.05998 26.8297 2.41656 26.8297H5.95918C6.48004 26.8297 6.96573 26.6723 7.36612 26.4026L8.71147 26.558C8.71163 26.5581 8.71179 26.5581 8.71195 26.5581C8.92735 26.5871 12.6436 27.0443 16.4593 26.9709C17.1509 27.0218 17.8018 27.05 18.4065 27.05C19.4489 27.05 20.3582 26.9707 21.1179 26.8115C22.9025 26.443 24.1323 25.7038 24.7583 24.6083L24.7583 24.6083C25.2276 23.7848 25.2353 22.9678 25.1627 22.4407C26.3146 21.4172 26.519 20.2862 26.4781 19.4878C26.4552 19.0386 26.3551 18.6538 26.2469 18.3647C26.8099 17.6576 27.0822 16.8972 27.047 16.1121L17.1122 10.0906ZM24.6675 17.6598L24.6677 17.6596C25.1671 17.1571 25.4016 16.6564 25.3792 16.1729L25.3792 16.1725C25.3649 15.8097 25.2104 15.4911 25.0564 15.2609C24.9796 15.1461 24.9034 15.0542 24.8463 14.9906C24.8177 14.9589 24.7939 14.9343 24.7771 14.9176C24.7688 14.9092 24.7622 14.9029 24.7576 14.8985C24.7534 14.8945 24.751 14.8923 24.7508 14.8921L24.7507 14.8921L24.7842 14.8549L24.7513 14.8925C24.4433 14.623 24.3738 14.1837 24.6031 13.8451M24.6675 17.6598L24.4473 11.8119M24.6675 17.6598C24.4085 17.9233 24.3575 18.3256 24.554 18.6388M24.6675 17.6598L23.7735 21.5116M24.6031 13.8451C24.6032 13.8448 24.6034 13.8446 24.6035 13.8444L24.6449 13.8725L24.6027 13.8456C24.6028 13.8454 24.603 13.8452 24.6031 13.8451ZM24.6031 13.8451C24.6402 13.7868 24.8207 13.4883 24.8777 13.1038C24.9346 12.7207 24.8691 12.2536 24.4141 11.8493M24.4141 11.8493L24.4473 11.8119M24.4141 11.8493C24.1457 11.6116 23.7473 11.4444 23.2677 11.3347C22.7888 11.2252 22.2335 11.174 21.6556 11.1653C20.4999 11.1477 19.2596 11.2996 18.3714 11.4882M24.4141 11.8493C24.4141 11.8493 24.4141 11.8493 24.4141 11.8493L24.4473 11.8119M24.4473 11.8119L18.3714 11.4882M18.3714 11.4882C18.3716 11.4882 18.3718 11.4881 18.372 11.4881L18.3605 11.4394L18.3709 11.4883C18.3711 11.4883 18.3712 11.4882 18.3714 11.4882ZM18.3714 11.4882C18.3599 11.4909 18.347 11.4936 18.3349 11.4962L18.3328 11.4966C18.3195 11.4994 18.3073 11.502 18.2968 11.5046L18.2929 11.5055L18.2929 11.5054C17.9753 11.5559 17.6404 11.623 17.288 11.7017M18.3714 11.4882L18.285 11.456C17.9653 11.5069 17.6284 11.5744 17.2743 11.6536M17.288 11.7017C17.289 11.7014 17.2899 11.7011 17.2908 11.7008L17.2743 11.6536M17.288 11.7017C16.9038 11.8352 16.3743 11.8179 15.975 11.4711C15.5717 11.1235 15.3984 10.5597 15.4446 9.73202C15.4907 8.90426 15.7569 7.80218 16.2451 6.36391C16.5635 5.42409 16.7275 4.60226 16.7391 3.91815C16.7506 3.23379 16.6096 2.69129 16.3223 2.30521L16.3223 2.30519C15.8528 1.67359 15.0786 1.57457 14.7534 1.56399C14.7287 1.61515 14.7065 1.69061 14.6887 1.78687C14.6679 1.89896 14.6537 2.03474 14.6469 2.18384C14.6332 2.48194 14.649 2.82982 14.6978 3.14217C14.7225 3.28058 14.7102 3.41911 14.6602 3.54688C14.6042 3.69643 13.9388 5.46572 12.9612 7.44963C12.472 8.4423 11.9043 9.48952 11.2953 10.4148C10.6877 11.3379 10.0368 12.143 9.37947 12.6506C8.71242 13.35 8.42385 14.1688 8.31742 14.5491C8.38606 14.7698 8.42574 15.0074 8.42574 15.2501V24.4307C8.42574 24.5844 8.41138 24.7383 8.38345 24.8844L8.91312 24.9459H8.91575H8.92257L8.92251 24.9463C8.96191 24.9517 12.7348 25.4257 16.4657 25.3466L16.4667 25.3466L16.4669 25.3466H16.4671H16.4673H16.4674H16.4676H16.4678H16.4679H16.4681H16.4683H16.4684H16.4686H16.4688H16.4689H16.4691H16.4693H16.4694H16.4696H16.4698H16.47H16.4701H16.4703H16.4705H16.4706H16.4708H16.471H16.4711H16.4713H16.4715H16.4717H16.4718H16.472H16.4722H16.4723H16.4725H16.4727H16.4728H16.473H16.4732H16.4733H16.4735H16.4737H16.4739H16.474H16.4742H16.4744H16.4745H16.4747H16.4749H16.475H16.4752H16.4754H16.4755H16.4757H16.4759H16.4761H16.4762H16.4764H16.4766H16.4767H16.4769H16.4771H16.4772H16.4774H16.4776H16.4777H16.4779H16.4781H16.4783H16.4784H16.4786H16.4788H16.4789H16.4791H16.4793H16.4794H16.4796H16.4798H16.4799H16.4801H16.4803H16.4804H16.4806H16.4808H16.481H16.4811H16.4813H16.4815H16.4816H16.4818H16.482H16.4821H16.4823H16.4825H16.4826H16.4828H16.483H16.4832H16.4833H16.4835H16.4837H16.4838H16.484H16.4842H16.4843H16.4845H16.4847H16.4848H16.485H16.4852H16.4853H16.4855H16.4857H16.4859H16.486H16.4862H16.4864H16.4865H16.4867H16.4869H16.487H16.4872H16.4874H16.4875H16.4877H16.4879H16.488H16.4882H16.4884H16.4885H16.4887H16.4889H16.489H16.4892H16.4894H16.4896H16.4897H16.4899H16.4901H16.4902H16.4904H16.4906H16.4907H16.4909H16.4911H16.4912H16.4914H16.4916H16.4917H16.4919H16.4921H16.4922H16.4924H16.4926H16.4927H16.4929H16.4931H16.4932H16.4934H16.4936H16.4937H16.4939H16.4941H16.4942H16.4944H16.4946H16.4947H16.4949H16.4951H16.4952H16.4954H16.4956H16.4957H16.4959H16.4961H16.4962H16.4964H16.4966H16.4967H16.4969H16.4971H16.4972H16.4974H16.4976H16.4977H16.4979H16.4981H16.4982H16.4984H16.4986H16.4987H16.4989H16.4991H16.4992H16.4994H16.4996H16.4997H16.4999H16.5001H16.5002H16.5004H16.5006H16.5007H16.5009H16.501H16.5012H16.5014H16.5015H16.5017H16.5019H16.502H16.5022H16.5024H16.5025H16.5027H16.5029H16.503H16.5032H16.5034H16.5035H16.5037H16.5038H16.504H16.5042H16.5043H16.5045H16.5047H16.5048H16.505H16.5052H16.5053H16.5055H16.5056H16.5058H16.506H16.5061H16.5063H16.5065H16.5066H16.5068H16.5069H16.5071H16.5073H16.5074H16.5076H16.5078H16.5079H16.5081H16.5083H16.5084H16.5086H16.5087H16.5089H16.5091H16.5092H16.5094H16.5095H16.5097H16.5099H16.51H16.5102H16.5104H16.5105H16.5107H16.5108H16.511H16.5112H16.5113H16.5115H16.5116H16.5118H16.512H16.5121H16.5123H16.5124H16.5126H16.5128H16.5129H16.5131H16.5132H16.5134H16.5136H16.5137H16.5139H16.514H16.5142H16.5144H16.5145H16.5147H16.5148H16.515H16.5152H16.5153H16.5155H16.5156H16.5158H16.516H16.5161H16.5163H16.5164H16.5166H16.5168H16.5169H16.5171H16.5172H16.5174H16.5175H16.5177H16.5179H16.518H16.5182H16.5183H16.5185H16.5186H16.5188H16.519H16.5191H16.5193H16.5194H16.5196H16.5197H16.5199H16.5201H16.5202H16.5204H16.5205H16.5207H16.5208H16.521H16.5212H16.5213H16.5215H16.5216H16.5218H16.5219H16.5221H16.5222H16.5224H16.5225H16.5227H16.5229H16.523H16.5232H16.5233H16.5235H16.5236H16.5238H16.5239H16.5241H16.5242H16.5244H16.5246H16.5247H16.5249H16.525H16.5252H16.5253H16.5255H16.5256H16.5258H16.5259H16.5261H16.5262H16.5264H16.5265H16.5267H16.5268H16.527H16.5272H16.5273H16.5275H16.5276H16.5278H16.5279H16.5281H16.5282H16.5284H16.5285H16.5287H16.5288H16.529H16.5291H16.5293H16.5294H16.5296H16.5297H16.5299H16.53H16.5302H16.5303H16.5305H16.5306H16.5308H16.5309H16.5311H16.5312H16.5314H16.5315H16.5317H16.5318H16.532H16.5321H16.5323H16.5324H16.5325H16.5327H16.5328H16.533H16.5331H16.5333H16.5334H16.5336H16.5337H16.5339H16.534H16.5342H16.5343H16.5345H16.5346H16.5347H16.5349H16.535H16.5352H16.5353H16.5355H16.5356H16.5358H16.5359H16.5361H16.5362H16.5363H16.5365H16.5366H16.5368H16.5369H16.5371H16.5372H16.5374H16.5375H16.5376H16.5378H16.5379H16.5381H16.5382H16.5384H16.5385H16.5386H16.5388H16.5389H16.5391H16.5392H16.5394H16.5395H16.5396H16.5398H16.5399H16.5401H16.5402H16.5403H16.5405H16.5406H16.5408H16.5409H16.541H16.5412H16.5413H16.5415H16.5416H16.5417H16.5419H16.542H16.5422H16.5423H16.5424H16.5426H16.5427H16.5429H16.543H16.5431H16.5433H16.5434H16.5436H16.5437H16.5438H16.544H16.5441H16.5442H16.5444H16.5445H16.5446H16.5448H16.5449H16.5451H16.5452H16.5453H16.5455H16.5456H16.5457H16.5459H16.546H16.5461H16.5463H16.5464H16.5465H16.5467H16.5468H16.5469H16.5471H16.5472H16.5473H16.5475H16.5476H16.5477H16.5516L16.5516 25.3467C18.304 25.4822 19.7272 25.442 20.7723 25.2231L20.7725 25.223C22.0804 24.9534 22.9279 24.4717 23.3061 23.813L23.3062 23.813C23.5035 23.4707 23.542 23.1181 23.5306 22.8491C23.525 22.7147 23.5069 22.6017 23.4903 22.5221C23.482 22.4823 23.4741 22.451 23.4682 22.4295C23.4653 22.4187 23.4629 22.4104 23.4613 22.4047L23.4592 22.3977L23.4588 22.396M17.288 11.7017C17.2871 11.7019 17.2862 11.7022 17.2852 11.7024L17.2743 11.6536M17.2743 11.6536C16.9024 11.7837 16.3913 11.7665 16.0077 11.4333C15.2351 10.7675 15.3168 9.25425 16.2925 6.37998C16.9313 4.49427 16.9546 3.07125 16.3624 2.27536C15.8629 1.60343 15.032 1.51875 14.724 1.51323C14.5847 1.74457 14.5497 2.51836 14.6485 3.15041C14.6718 3.2805 14.6602 3.40998 14.6135 3.52902C14.5037 3.82234 11.9533 10.6036 9.34592 12.6133C8.66047 13.3306 8.3696 14.1719 8.26528 14.5499C8.33524 14.7702 8.37574 15.0077 8.37574 15.2501V24.4307L23.4588 22.396M23.7735 21.5116C24.5406 20.9526 24.9063 20.2979 24.8658 19.5584C24.8392 19.0682 24.6421 18.6982 24.6045 18.6275C24.6005 18.6199 24.5983 18.6158 24.5983 18.6153H24.5483C24.5483 18.6234 24.5503 18.6297 24.5506 18.6306L24.5507 18.6306L24.5523 18.635L24.554 18.6388M23.7735 21.5116C23.5004 21.7154 23.3906 22.0651 23.5066 22.3812L23.7735 21.5116ZM24.554 18.6388L24.554 18.6388L24.5567 18.6441L24.5644 18.6585C24.5708 18.6707 24.58 18.6882 24.5911 18.7108C24.6133 18.7559 24.6433 18.8213 24.6742 18.9032C24.7362 19.0671 24.8015 19.2964 24.8159 19.5611L24.8159 19.5612C24.8552 20.2789 24.5018 20.919 23.7441 21.4712L23.7436 21.4716C23.4542 21.6875 23.3363 22.059 23.4588 22.396M24.554 18.6388L23.4588 22.396M2.41656 25.1999H2.36656V25.2039C1.94615 25.1787 1.6185 24.8377 1.6185 24.4307V15.2501C1.6185 14.8221 1.97746 14.476 2.41656 14.476H5.95918C6.40337 14.476 6.75725 14.8272 6.75725 15.2501V24.4252C6.75725 24.8532 6.39823 25.1999 5.95918 25.1999H2.41656Z" transform="translate(8 5)" stroke="url(#paint1_linear)" stroke-opacity="0.4" stroke-width="0.1"/>
</g>
<defs>
<filter id="filter0_d" x="0.339661" y="0.363879" width="42.3205" height="42.3205" filterUnits="userSpaceOnUse" color-interpolation-filters="sRGB">
<feFlood flood-opacity="0" result="BackgroundImageFix"/>
<feColorMatrix in="SourceAlpha" type="matrix" values="0 0 0 0 0 0 0 0 0 0 0 0 0 0 0 0 0 0 255 0"/>
<feOffset dy="3.0241"/>
<feGaussianBlur stdDeviation="3.78012"/>
<feColorMatrix type="matrix" values="0 0 0 0 0 0 0 0 0 0 0 0 0 0 0 0 0 0 0.7 0"/>
<feBlend mode="normal" in2="BackgroundImageFix" result="effect1_dropShadow"/>
<feBlend mode="normal" in="SourceGraphic" in2="effect1_dropShadow" result="shape"/>
</filter>
<linearGradient id="paint0_linear" x2="1" gradientUnits="userSpaceOnUse" gradientTransform="translate(27 13.5) scale(27) rotate(180)">
<stop stop-color="#4563F9"/>
<stop offset="1" stop-color="#1DA8EB"/>
</linearGradient>
<linearGradient id="paint1_linear" x2="1" gradientUnits="userSpaceOnUse" gradientTransform="translate(27 13.5) scale(27) rotate(180)">
<stop stop-color="#4563F9"/>
<stop offset="1" stop-color="#1DA8EB"/>
</linearGradient>
</defs>
</svg>
