<svg width="51" height="51" viewBox="0 0 51 51" fill="none" xmlns="http://www.w3.org/2000/svg">
<g filter="url(#filter0_d)">
<path d="M33.9501 23.7944C34.6875 22.8797 35.0415 21.8989 34.9961 20.8886C34.9516 19.7758 34.4393 18.9056 34.0177 18.371C34.5069 17.185 34.6954 15.3189 33.0615 13.8695C31.8643 12.8084 29.8311 12.3327 27.0151 12.4648C25.0352 12.5523 23.379 12.911 23.3106 12.9253H23.3034C22.9272 12.9914 22.5279 13.0717 22.1214 13.16C22.0911 12.6915 22.1739 11.5277 23.0624 8.9075C24.1164 5.78932 24.056 3.40295 22.8667 1.80807C21.617 0.132045 19.6212 0 19.0341 0C18.4693 0 17.9499 0.226705 17.5808 0.644318C16.7455 1.58852 16.8434 3.32977 16.9484 4.13557C15.9548 6.72636 13.1691 13.0789 10.8121 14.8432C10.7668 14.8726 10.7294 14.9092 10.692 14.9458C9.99912 15.6553 9.53218 16.4237 9.21558 17.0975C8.7717 16.8628 8.26737 16.7316 7.72486 16.7316H3.13258C1.40004 16.7316 0 18.0998 0 19.7758V31.6694C0 33.3534 1.40799 34.7144 3.13258 34.7144H7.72486C8.39544 34.7144 9.01989 34.5092 9.53218 34.1584L11.3013 34.3628C11.5726 34.3994 16.3916 34.9928 21.3378 34.8974C22.2343 34.9634 23.0775 35 23.8603 35C25.2086 35 26.3827 34.8974 27.362 34.6922C29.6657 34.2165 31.2391 33.2651 32.0378 31.8675C32.6471 30.7984 32.6471 29.7373 32.5493 29.0643C34.0479 27.747 34.3112 26.2906 34.2587 25.2652C34.2285 24.6726 34.0933 24.1675 33.9501 23.7944ZM3.13258 32.7385C2.52245 32.7385 2.03323 32.2549 2.03323 31.6694V19.7686C2.03323 19.176 2.52961 18.7003 3.13258 18.7003H7.72486C8.33499 18.7003 8.82421 19.1832 8.82421 19.7686V31.6623C8.82421 32.2549 8.32783 32.7314 7.72486 32.7314H3.13258V32.7385ZM32.0226 22.9377C31.706 23.2599 31.6456 23.7507 31.8866 24.1309C31.8866 24.1381 32.1953 24.6503 32.2334 25.3535C32.2859 26.312 31.8118 27.1608 30.8175 27.8855C30.4635 28.1495 30.3211 28.603 30.4715 29.0126C30.4715 29.0198 30.7952 29.9862 30.2678 30.901C29.7635 31.7792 28.6419 32.4092 26.9404 32.76C25.5769 33.0456 23.725 33.0973 21.4508 32.9215C21.4214 32.9215 21.3832 32.9215 21.3458 32.9215C16.5045 33.0241 11.61 32.4092 11.5575 32.402H11.5503L10.7898 32.3138C10.8344 32.1085 10.8574 31.889 10.8574 31.6694V19.7686C10.8574 19.4544 10.8049 19.1466 10.7143 18.861C10.8495 18.371 11.2265 17.2805 12.1151 16.3506C15.4951 13.7455 18.8011 4.95489 18.9434 4.57466C19.0039 4.42034 19.019 4.2525 18.9888 4.08386C18.8607 3.26455 18.9061 2.26148 19.0866 1.96159C19.486 1.96875 20.563 2.07852 21.2106 2.94955C21.9782 3.98125 21.948 5.82591 21.1199 8.27034C19.8551 11.9963 19.7493 13.9578 20.7508 14.8209C21.2479 15.2528 21.9106 15.2751 22.3926 15.1065C22.8516 15.0039 23.2883 14.9164 23.7028 14.8503C23.7322 14.8432 23.7704 14.836 23.8006 14.8289C26.1115 14.3381 30.2527 14.0382 31.6909 15.3117C32.9104 16.3951 32.0449 17.8293 31.9471 17.9828C31.6687 18.3933 31.7514 18.927 32.1277 19.2564C32.1356 19.2635 32.9255 19.9882 32.9637 20.9618C32.9939 21.6133 32.6773 22.2791 32.0226 22.9377Z" transform="translate(8 5)" fill="#7C7C7C"/>
<path d="M33.9501 23.7944C34.6875 22.8797 35.0415 21.8989 34.9961 20.8886C34.9516 19.7758 34.4393 18.9056 34.0177 18.371C34.5069 17.185 34.6954 15.3189 33.0615 13.8695C31.8643 12.8084 29.8311 12.3327 27.0151 12.4648C25.0352 12.5523 23.379 12.911 23.3106 12.9253H23.3034C22.9272 12.9914 22.5279 13.0717 22.1214 13.16C22.0911 12.6915 22.1739 11.5277 23.0624 8.9075C24.1164 5.78932 24.056 3.40295 22.8667 1.80807C21.617 0.132045 19.6212 0 19.0341 0C18.4693 0 17.9499 0.226705 17.5808 0.644318C16.7455 1.58852 16.8434 3.32977 16.9484 4.13557C15.9548 6.72636 13.1691 13.0789 10.8121 14.8432C10.7668 14.8726 10.7294 14.9092 10.692 14.9458C9.99912 15.6553 9.53218 16.4237 9.21558 17.0975C8.7717 16.8628 8.26737 16.7316 7.72486 16.7316H3.13258C1.40004 16.7316 0 18.0998 0 19.7758V31.6694C0 33.3534 1.40799 34.7144 3.13258 34.7144H7.72486C8.39544 34.7144 9.01989 34.5092 9.53218 34.1584L11.3013 34.3628C11.5726 34.3994 16.3916 34.9928 21.3378 34.8974C22.2343 34.9634 23.0775 35 23.8603 35C25.2086 35 26.3827 34.8974 27.362 34.6922C29.6657 34.2165 31.2391 33.2651 32.0378 31.8675C32.6471 30.7984 32.6471 29.7373 32.5493 29.0643C34.0479 27.747 34.3112 26.2906 34.2587 25.2652C34.2285 24.6726 34.0933 24.1675 33.9501 23.7944ZM3.13258 32.7385C2.52245 32.7385 2.03323 32.2549 2.03323 31.6694V19.7686C2.03323 19.176 2.52961 18.7003 3.13258 18.7003H7.72486C8.33499 18.7003 8.82421 19.1832 8.82421 19.7686V31.6623C8.82421 32.2549 8.32783 32.7314 7.72486 32.7314H3.13258V32.7385ZM32.0226 22.9377C31.706 23.2599 31.6456 23.7507 31.8866 24.1309C31.8866 24.1381 32.1953 24.6503 32.2334 25.3535C32.2859 26.312 31.8118 27.1608 30.8175 27.8855C30.4635 28.1495 30.3211 28.603 30.4715 29.0126C30.4715 29.0198 30.7952 29.9862 30.2678 30.901C29.7635 31.7792 28.6419 32.4092 26.9404 32.76C25.5769 33.0456 23.725 33.0973 21.4508 32.9215C21.4214 32.9215 21.3832 32.9215 21.3458 32.9215C16.5045 33.0241 11.61 32.4092 11.5575 32.402H11.5503L10.7898 32.3138C10.8344 32.1085 10.8574 31.889 10.8574 31.6694V19.7686C10.8574 19.4544 10.8049 19.1466 10.7143 18.861C10.8495 18.371 11.2265 17.2805 12.1151 16.3506C15.4951 13.7455 18.8011 4.95489 18.9434 4.57466C19.0039 4.42034 19.019 4.2525 18.9888 4.08386C18.8607 3.26455 18.9061 2.26148 19.0866 1.96159C19.486 1.96875 20.563 2.07852 21.2106 2.94955C21.9782 3.98125 21.948 5.82591 21.1199 8.27034C19.8551 11.9963 19.7493 13.9578 20.7508 14.8209C21.2479 15.2528 21.9106 15.2751 22.3926 15.1065C22.8516 15.0039 23.2883 14.9164 23.7028 14.8503C23.7322 14.8432 23.7704 14.836 23.8006 14.8289C26.1115 14.3381 30.2527 14.0382 31.6909 15.3117C32.9104 16.3951 32.0449 17.8293 31.9471 17.9828C31.6687 18.3933 31.7514 18.927 32.1277 19.2564C32.1356 19.2635 32.9255 19.9882 32.9637 20.9618C32.9939 21.6133 32.6773 22.2791 32.0226 22.9377Z" transform="translate(8 5)" fill="url(#paint0_linear)" fill-opacity="0.4"/>
</g>
<defs>
<filter id="filter0_d" x="0.439758" y="0.463855" width="50.1205" height="50.1205" filterUnits="userSpaceOnUse" color-interpolation-filters="sRGB">
<feFlood flood-opacity="0" result="BackgroundImageFix"/>
<feColorMatrix in="SourceAlpha" type="matrix" values="0 0 0 0 0 0 0 0 0 0 0 0 0 0 0 0 0 0 255 0"/>
<feOffset dy="3.0241"/>
<feGaussianBlur stdDeviation="3.78012"/>
<feColorMatrix type="matrix" values="0 0 0 0 0 0 0 0 0 0 0 0 0 0 0 0 0 0 0.7 0"/>
<feBlend mode="normal" in2="BackgroundImageFix" result="effect1_dropShadow"/>
<feBlend mode="normal" in="SourceGraphic" in2="effect1_dropShadow" result="shape"/>
</filter>
<linearGradient id="paint0_linear" x2="1" gradientUnits="userSpaceOnUse" gradientTransform="translate(35 17.5) scale(35) rotate(180)">
<stop stop-color="#4563F9"/>
<stop offset="1" stop-color="#1DA8EB"/>
</linearGradient>
</defs>
</svg>
