<svg width="46" height="58" viewBox="0 0 46 58" fill="none" xmlns="http://www.w3.org/2000/svg">
<g filter="url(#filter0_d)">
<path d="M17.1611 3.27832H12.8784C12.5009 3.27832 12.195 3.57829 12.195 3.9484C12.195 4.3185 12.5009 4.61847 12.8784 4.61847H17.1611C17.5385 4.61847 17.8445 4.3185 17.8445 3.9484C17.8445 3.57829 17.5385 3.27832 17.1611 3.27832Z" transform="translate(8 5)" fill="#C4C4C4"/>
<path d="M17.1611 3.27832H12.8784C12.5009 3.27832 12.195 3.57829 12.195 3.9484C12.195 4.3185 12.5009 4.61847 12.8784 4.61847H17.1611C17.5385 4.61847 17.8445 4.3185 17.8445 3.9484C17.8445 3.57829 17.5385 3.27832 17.1611 3.27832Z" transform="translate(8 5)" fill="url(#paint0_linear)"/>
<path d="M15.0014 33.7626C13.3457 33.7675 12.0076 35.0876 12.0126 36.7109C12.0176 38.3343 13.364 39.6463 15.0196 39.6414C16.6682 39.6365 18.0034 38.3274 18.0084 36.7109C18.0084 35.0826 16.6621 33.7626 15.0014 33.7626ZM15.0014 38.3013V38.3102C14.1006 38.3053 13.3744 37.5853 13.3794 36.702C13.3845 35.8187 14.1188 35.1068 15.0196 35.1117C15.9168 35.1166 16.6416 35.8311 16.6416 36.7109C16.6366 37.5942 15.9022 38.3062 15.0014 38.3013Z" transform="translate(8 5)" fill="#C4C4C4"/>
<path d="M15.0014 33.7626C13.3457 33.7675 12.0076 35.0876 12.0126 36.7109C12.0176 38.3343 13.364 39.6463 15.0196 39.6414C16.6682 39.6365 18.0034 38.3274 18.0084 36.7109C18.0084 35.0826 16.6621 33.7626 15.0014 33.7626ZM15.0014 38.3013V38.3102C14.1006 38.3053 13.3744 37.5853 13.3794 36.702C13.3845 35.8187 14.1188 35.1068 15.0196 35.1117C15.9168 35.1166 16.6416 35.8311 16.6416 36.7109C16.6366 37.5942 15.9022 38.3062 15.0014 38.3013Z" transform="translate(8 5)" fill="url(#paint1_linear)"/>
<path d="M23.9496 0.00848805H5.91674C4.32828 -0.0761651 2.77284 0.475197 1.60672 1.53626C0.48377 2.72923 -0.0924553 4.32077 0.012106 5.94091V36.0676C0.012106 40.4365 3.13755 42 6.06253 42H23.9496C28.4054 42 30 38.9355 30 36.0676V5.93197C30 1.56307 26.8746 0.00848805 23.9496 0.00848805ZM28.6241 36.0676C28.6332 37.4435 28.1685 40.6598 23.9496 40.6598H6.06253C4.65927 40.6598 1.37892 40.2131 1.37892 36.0676V32.4938H28.6241V36.0676ZM28.6241 31.1716H1.37892V7.79925H28.6241V31.1716ZM28.6332 6.46803H1.37892V5.94091C1.28472 4.68038 1.71538 3.43616 2.5726 2.49224C3.5034 1.67374 4.73342 1.26097 5.98053 1.34864H23.9496C25.3528 1.34864 28.6332 1.79536 28.6332 5.94091V6.46803Z" transform="translate(8 5)" fill="#C4C4C4"/>
<path d="M23.9496 0.00848805H5.91674C4.32828 -0.0761651 2.77284 0.475197 1.60672 1.53626C0.48377 2.72923 -0.0924553 4.32077 0.012106 5.94091V36.0676C0.012106 40.4365 3.13755 42 6.06253 42H23.9496C28.4054 42 30 38.9355 30 36.0676V5.93197C30 1.56307 26.8746 0.00848805 23.9496 0.00848805ZM28.6241 36.0676C28.6332 37.4435 28.1685 40.6598 23.9496 40.6598H6.06253C4.65927 40.6598 1.37892 40.2131 1.37892 36.0676V32.4938H28.6241V36.0676ZM28.6241 31.1716H1.37892V7.79925H28.6241V31.1716ZM28.6332 6.46803H1.37892V5.94091C1.28472 4.68038 1.71538 3.43616 2.5726 2.49224C3.5034 1.67374 4.73342 1.26097 5.98053 1.34864H23.9496C25.3528 1.34864 28.6332 1.79536 28.6332 5.94091V6.46803Z" transform="translate(8 5)" fill="url(#paint2_linear)"/>
<path d="M15.0014 33.6626L15.0011 33.6626C13.2921 33.6677 11.9074 35.0308 11.9126 36.7112C11.9178 38.3917 13.3109 39.7465 15.0199 39.7414C16.7217 39.7363 18.1032 38.3845 18.1084 36.7112V36.7109C18.1084 35.0256 16.7154 33.6626 15.0014 33.6626ZM15.0019 38.2013L14.9014 38.2007V38.2065C14.1014 38.1514 13.4749 37.4958 13.4794 36.7026C13.4841 35.8764 14.1716 35.2071 15.0191 35.2117C15.863 35.2163 16.5414 35.8878 16.5416 36.7107C16.5367 37.5368 15.8493 38.2059 15.0019 38.2013ZM1.53942 1.4623L1.53922 1.46208L1.53391 1.46772C0.392908 2.67986 -0.193285 4.29716 -0.087894 5.94412V36.0676C-0.087894 38.2784 0.704267 39.7914 1.87719 40.7496C3.04678 41.705 4.58398 42.1 6.06253 42.1H23.9496C26.2024 42.1 27.7446 41.3241 28.7219 40.174C29.6968 39.0268 30.1 37.5185 30.1 36.0676V5.93197C30.1 3.72114 29.3078 2.21033 28.1348 1.25437C26.9652 0.301156 25.428 -0.0915119 23.9496 -0.0915119H5.91939C4.30543 -0.176814 2.72486 0.383656 1.53942 1.4623ZM28.5241 36.0676L28.5241 36.0682C28.5286 36.7477 28.4154 37.8726 27.7888 38.8247C27.1669 39.7696 26.0292 40.5598 23.9496 40.5598H6.06253C5.36828 40.5598 4.21992 40.4488 3.24797 39.8338C2.28374 39.2237 1.47892 38.1089 1.47892 36.0676V32.5938H28.5241L28.5241 36.0676ZM28.5332 5.94091V6.36803H1.47892V5.94091H1.4792L1.47864 5.93345C1.38665 4.70241 1.80642 3.48693 2.64286 2.56363C3.55289 1.76541 4.7547 1.36272 5.97351 1.4484L5.9735 1.44864H5.98053H23.9496C24.6438 1.44864 25.7922 1.55973 26.7641 2.1747C27.7284 2.78479 28.5332 3.89961 28.5332 5.94091ZM17.1611 3.17832H12.8784C12.4475 3.17832 12.095 3.52122 12.095 3.9484C12.095 4.37558 12.4475 4.71847 12.8784 4.71847H17.1611C17.5919 4.71847 17.9445 4.37558 17.9445 3.9484C17.9445 3.52122 17.5919 3.17832 17.1611 3.17832ZM28.5241 31.0716H1.47892V7.89925H28.5241V31.0716Z" transform="translate(8 5)" stroke="url(#paint3_linear)" stroke-width="0.2"/>
</g>
<defs>
<filter id="filter0_d" x="0.239563" y="0.26366" width="45.5205" height="57.5205" filterUnits="userSpaceOnUse" color-interpolation-filters="sRGB">
<feFlood flood-opacity="0" result="BackgroundImageFix"/>
<feColorMatrix in="SourceAlpha" type="matrix" values="0 0 0 0 0 0 0 0 0 0 0 0 0 0 0 0 0 0 255 0"/>
<feOffset dy="3.0241"/>
<feGaussianBlur stdDeviation="3.78012"/>
<feColorMatrix type="matrix" values="0 0 0 0 0 0 0 0 0 0 0 0 0 0 0 0 0 0 0.7 0"/>
<feBlend mode="normal" in2="BackgroundImageFix" result="effect1_dropShadow"/>
<feBlend mode="normal" in="SourceGraphic" in2="effect1_dropShadow" result="shape"/>
</filter>
<linearGradient id="paint0_linear" x2="1" gradientUnits="userSpaceOnUse" gradientTransform="translate(18.4809 39.1866) scale(30.0001 42.0002) rotate(-150)">
<stop stop-color="#89CA70"/>
<stop offset="0.35" stop-color="#1DA8EB"/>
<stop offset="0.75" stop-color="#F11370"/>
<stop offset="1" stop-color="#FB8A00"/>
</linearGradient>
<linearGradient id="paint1_linear" x2="1" gradientUnits="userSpaceOnUse" gradientTransform="translate(18.4809 39.1866) scale(30.0001 42.0002) rotate(-150)">
<stop stop-color="#89CA70"/>
<stop offset="0.35" stop-color="#1DA8EB"/>
<stop offset="0.75" stop-color="#F11370"/>
<stop offset="1" stop-color="#FB8A00"/>
</linearGradient>
<linearGradient id="paint2_linear" x2="1" gradientUnits="userSpaceOnUse" gradientTransform="translate(18.4809 39.1866) scale(30.0001 42.0002) rotate(-150)">
<stop stop-color="#89CA70"/>
<stop offset="0.35" stop-color="#1DA8EB"/>
<stop offset="0.75" stop-color="#F11370"/>
<stop offset="1" stop-color="#FB8A00"/>
</linearGradient>
<linearGradient id="paint3_linear" x2="1" gradientUnits="userSpaceOnUse" gradientTransform="translate(18.4809 39.1866) scale(30.0001 42.0002) rotate(-150)">
<stop stop-color="#89CA70"/>
<stop offset="0.35" stop-color="#1DA8EB"/>
<stop offset="0.75" stop-color="#F11370"/>
<stop offset="1" stop-color="#FB8A00"/>
</linearGradient>
</defs>
</svg>
