<svg width="43" height="42" viewBox="0 0 43 42" fill="none" xmlns="http://www.w3.org/2000/svg">
<g filter="url(#filter0_d)">
<path d="M25.3421 11.7376C24.0083 10.8434 22.4408 10.3711 20.808 10.3711C18.7163 10.3711 16.7651 11.1345 15.2765 12.5284C15.1638 13.8739 14.5127 15.0749 13.531 15.9329C14.2686 16.2088 14.9738 16.5699 15.634 17.0127C16.1117 17.3333 16.2288 17.9646 15.8954 18.4239C15.5626 18.8832 14.9055 18.9959 14.4278 18.6752C13.0939 17.7811 11.5257 17.3088 9.89291 17.3088C6.38398 17.3088 3.20476 19.4848 2.16305 22.5998C2.05865 22.9118 2.11348 23.2426 2.31476 23.5076C2.51529 23.7727 2.82623 23.9243 3.16721 23.9243H12.3414C12.9242 23.9243 13.3958 24.3786 13.3958 24.9383C13.3958 25.4981 12.9242 25.9523 12.3414 25.9523H3.16721C2.14427 25.9523 1.21221 25.4966 0.609861 24.7022C0.00751418 23.9077 -0.157718 22.9154 0.154721 21.9794C1.09955 19.1569 3.41881 16.9441 6.27883 15.9134C5.20933 14.9681 4.53789 13.6117 4.53789 12.1081C4.53789 9.25744 6.95028 6.93767 9.9162 6.93767C12.1739 6.93767 14.1116 8.28244 14.9077 10.1826C15.4845 9.77961 16.1049 9.43656 16.7651 9.15778C16.91 9.09639 17.0557 9.03861 17.2029 8.98372C16.1282 8.03761 15.4522 6.67839 15.4522 5.17039C15.4522 2.31906 17.8654 0 20.8305 0C23.7965 0 26.2089 2.31906 26.2089 5.16967C26.2089 6.68417 25.5284 8.04844 24.4454 8.99528C25.1829 9.27117 25.8882 9.63228 26.5483 10.075C27.0268 10.3949 27.1432 11.0269 26.8105 11.4862C26.477 11.9456 25.8198 12.0582 25.3421 11.7376ZM9.9162 8.96567C8.11366 8.96567 6.64685 10.3754 6.64685 12.1081C6.64685 13.8407 8.11366 15.2504 9.9162 15.2504C11.7187 15.2504 13.1855 13.8407 13.1855 12.1081C13.1855 10.3754 11.7187 8.96567 9.9162 8.96567ZM20.8305 2.02728C19.028 2.02728 17.562 3.43706 17.562 5.17039C17.562 6.903 19.028 8.31278 20.8305 8.31278C22.6338 8.31278 24.0999 6.903 24.0999 5.17039C24.0999 3.43706 22.6338 2.02728 20.8305 2.02728ZM15.658 20.7097L19.0228 23.816C19.1865 23.9655 19.3765 23.9778 19.4749 23.9713C19.5703 23.9648 19.7483 23.9308 19.8902 23.7727L25.0883 16.7931C25.427 16.3374 26.0857 16.2327 26.5596 16.5591C27.0328 16.8848 27.1417 17.5182 26.8029 17.9732L21.5839 24.9817C21.5726 24.9968 21.5606 25.0113 21.5486 25.0264C21.0746 25.5934 20.3702 25.9458 19.6153 25.9942C19.5553 25.9978 19.4959 26 19.4366 26C18.7434 26 18.0697 25.7429 17.5657 25.2814L14.1972 22.1722C13.7766 21.7844 13.7631 21.1423 14.1664 20.7386C14.5697 20.3349 15.2374 20.3219 15.658 20.7097Z" transform="translate(8 5)" fill="url(#paint0_linear)"/>
</g>
<defs>
<filter id="filter0_d" x="0.439758" y="0.463855" width="42.1205" height="41.1205" filterUnits="userSpaceOnUse" color-interpolation-filters="sRGB">
<feFlood flood-opacity="0" result="BackgroundImageFix"/>
<feColorMatrix in="SourceAlpha" type="matrix" values="0 0 0 0 0 0 0 0 0 0 0 0 0 0 0 0 0 0 255 0"/>
<feOffset dy="3.0241"/>
<feGaussianBlur stdDeviation="3.78012"/>
<feColorMatrix type="matrix" values="0 0 0 0 0 0 0 0 0 0 0 0 0 0 0 0 0 0 0.7 0"/>
<feBlend mode="normal" in2="BackgroundImageFix" result="effect1_dropShadow"/>
<feBlend mode="normal" in="SourceGraphic" in2="effect1_dropShadow" result="shape"/>
</filter>
<linearGradient id="paint0_linear" x2="1" gradientUnits="userSpaceOnUse" gradientTransform="translate(0 -13) scale(27 26)">
<stop stop-color="#2769D1"/>
<stop offset="0.35" stop-color="#7C57BE"/>
<stop offset="1" stop-color="#BA2D99"/>
</linearGradient>
</defs>
</svg>
