<svg width="52" height="52" viewBox="0 0 52 52" fill="none" xmlns="http://www.w3.org/2000/svg">
<g filter="url(#filter0_d)">
<path d="M33.0764 32.8967C30.8178 35.3194 28.1986 36 25.9653 36C23.6141 36 21.6922 35.2453 21.0749 34.9727C16.4371 35.3853 12.8519 34.0494 12.6999 33.992C4.28424 31.5001 2.05833 23.8756 1.96833 23.5523C0.288405 19.1864 0.875714 15.6265 1.1057 14.6038C-2.07949 8.17729 2.62497 3.18806 2.67364 3.13806C7.88275 -2.09649 14.0505 0.646786 15.3438 1.3141C25.054 0.000800443 30.3171 5.81734 30.7798 6.35466C36.5622 11.9992 35.4809 19.715 35.2223 21.133C37.7322 28.0248 33.3917 32.5794 33.0764 32.8967ZM33.7397 21.0397C33.7577 20.9597 35.4169 12.9065 29.7245 7.37664L29.6732 7.32064C29.4705 7.08064 24.584 1.4381 15.3138 2.79674L15.0518 2.83607L14.8245 2.69874C14.5778 2.55274 8.71538 -0.852514 3.73026 4.15871C3.56893 4.32804 -0.398232 8.57794 2.54031 14.1778L2.67697 14.4371L2.59497 14.7178C2.58497 14.7531 1.57435 18.4291 3.36628 23.0956C3.40761 23.2303 5.50485 30.3348 13.1739 32.6067C13.2592 32.6374 16.7584 33.9294 21.1309 33.4974L21.3455 33.4761L21.5402 33.5747C21.7868 33.7007 27.6386 36.5873 32.0031 31.8954L32.0211 31.8761C32.1911 31.7068 36.1302 27.6529 33.7703 21.4523L33.6937 21.251L33.7397 21.0397Z" transform="translate(8 5)" fill="url(#paint0_linear)"/>
<path d="M2.60275 3.06753L2.60275 3.06752L2.60198 3.06832C2.57201 3.09911 1.37409 4.37018 0.583531 6.44412C-0.205498 8.51405 -0.589039 11.3858 1.00044 14.6165C0.763038 15.6938 0.204376 19.2431 1.8733 23.5838C1.9834 23.9756 4.23922 31.5892 12.668 34.0869C12.8682 34.1621 16.4407 35.4794 21.0581 35.0746C21.7056 35.3581 23.6236 36.1 25.9653 36.1C28.22 36.1 30.8675 35.412 33.1484 32.966C33.4797 32.6323 37.8333 28.0509 35.3255 21.1242C35.5933 19.6334 36.6347 11.9333 30.8527 6.28612C30.3637 5.71939 25.0823 -0.0899885 15.3615 1.21081C14.0041 0.516896 7.82603 -2.18125 2.60275 3.06753ZM33.6421 21.0177L33.6419 21.0184L33.5959 21.2297L33.5896 21.2588L33.6002 21.2866L33.6769 21.4879C36.0147 27.6305 32.113 31.6433 31.9505 31.8052L31.9504 31.8052L31.9479 31.8079L31.9299 31.8273L31.9298 31.8273C29.7733 34.1456 27.2522 34.5913 25.2348 34.4421C23.2143 34.2925 21.7033 33.5458 21.5857 33.4857L21.5854 33.4855L21.3907 33.3869L21.3647 33.3737L21.3356 33.3765L21.121 33.3979C16.8202 33.8228 13.3676 32.5706 13.2117 32.5141L13.2077 32.5126L13.2077 32.5125L13.2023 32.5109C5.64796 30.2729 3.53632 23.3117 3.46326 23.0708C3.46266 23.0689 3.4622 23.0673 3.46187 23.0663L3.4621 23.0662L3.45963 23.0598C2.56913 20.7407 2.37517 18.6683 2.40488 17.172C2.41974 16.4238 2.49051 15.8199 2.55801 15.4014C2.59175 15.1922 2.62468 15.0294 2.64937 14.9182C2.66172 14.8626 2.672 14.8199 2.67931 14.7907L2.6879 14.7573L2.69029 14.7483L2.69096 14.7459L2.69096 14.7459L2.6912 14.745L2.77296 14.4652L2.78431 14.4263L2.76544 14.3905L2.62886 14.1314C2.62885 14.1313 2.62884 14.1313 2.62883 14.1313C-0.272016 8.60319 3.63263 4.40642 3.80194 4.22845C6.26866 1.7493 8.94773 1.35376 11.0429 1.59412C13.1403 1.83474 14.6526 2.71323 14.7732 2.78459C14.7733 2.78466 14.7734 2.78473 14.7735 2.7848L15.0001 2.92166L15.031 2.94032L15.0666 2.93496L15.3283 2.89568C15.3283 2.89567 15.3284 2.89566 15.3285 2.89565C24.5478 1.54457 29.4029 7.15556 29.5968 7.38515L29.5967 7.38521L29.5994 7.38821L29.6508 7.44421L29.6507 7.44432L29.6548 7.44836C32.4791 10.192 33.4812 13.5628 33.7741 16.2626C33.9205 17.6124 33.8895 18.7928 33.8207 19.6406C33.7863 20.0644 33.7426 20.4049 33.7069 20.6415C33.6891 20.7598 33.6733 20.8521 33.6617 20.9159C33.6559 20.9478 33.6512 20.9726 33.6478 20.9898L33.6437 21.01L33.6425 21.0157L33.6421 21.0177Z" transform="translate(8 5)" stroke="black" stroke-width="0.2"/>
<path d="M2.60275 3.06753L2.60275 3.06752L2.60198 3.06832C2.57201 3.09911 1.37409 4.37018 0.583531 6.44412C-0.205498 8.51405 -0.589039 11.3858 1.00044 14.6165C0.763038 15.6938 0.204376 19.2431 1.8733 23.5838C1.9834 23.9756 4.23922 31.5892 12.668 34.0869C12.8682 34.1621 16.4407 35.4794 21.0581 35.0746C21.7056 35.3581 23.6236 36.1 25.9653 36.1C28.22 36.1 30.8675 35.412 33.1484 32.966C33.4797 32.6323 37.8333 28.0509 35.3255 21.1242C35.5933 19.6334 36.6347 11.9333 30.8527 6.28612C30.3637 5.71939 25.0823 -0.0899885 15.3615 1.21081C14.0041 0.516896 7.82603 -2.18125 2.60275 3.06753ZM33.6421 21.0177L33.6419 21.0184L33.5959 21.2297L33.5896 21.2588L33.6002 21.2866L33.6769 21.4879C36.0147 27.6305 32.113 31.6433 31.9505 31.8052L31.9504 31.8052L31.9479 31.8079L31.9299 31.8273L31.9298 31.8273C29.7733 34.1456 27.2522 34.5913 25.2348 34.4421C23.2143 34.2925 21.7033 33.5458 21.5857 33.4857L21.5854 33.4855L21.3907 33.3869L21.3647 33.3737L21.3356 33.3765L21.121 33.3979C16.8202 33.8228 13.3676 32.5706 13.2117 32.5141L13.2077 32.5126L13.2077 32.5125L13.2023 32.5109C5.64796 30.2729 3.53632 23.3117 3.46326 23.0708C3.46266 23.0689 3.4622 23.0673 3.46187 23.0663L3.4621 23.0662L3.45963 23.0598C2.56913 20.7407 2.37517 18.6683 2.40488 17.172C2.41974 16.4238 2.49051 15.8199 2.55801 15.4014C2.59175 15.1922 2.62468 15.0294 2.64937 14.9182C2.66172 14.8626 2.672 14.8199 2.67931 14.7907L2.6879 14.7573L2.69029 14.7483L2.69096 14.7459L2.69096 14.7459L2.6912 14.745L2.77296 14.4652L2.78431 14.4263L2.76544 14.3905L2.62886 14.1314C2.62885 14.1313 2.62884 14.1313 2.62883 14.1313C-0.272016 8.60319 3.63263 4.40642 3.80194 4.22845C6.26866 1.7493 8.94773 1.35376 11.0429 1.59412C13.1403 1.83474 14.6526 2.71323 14.7732 2.78459C14.7733 2.78466 14.7734 2.78473 14.7735 2.7848L15.0001 2.92166L15.031 2.94032L15.0666 2.93496L15.3283 2.89568C15.3283 2.89567 15.3284 2.89566 15.3285 2.89565C24.5478 1.54457 29.4029 7.15556 29.5968 7.38515L29.5967 7.38521L29.5994 7.38821L29.6508 7.44421L29.6507 7.44432L29.6548 7.44836C32.4791 10.192 33.4812 13.5628 33.7741 16.2626C33.9205 17.6124 33.8895 18.7928 33.8207 19.6406C33.7863 20.0644 33.7426 20.4049 33.7069 20.6415C33.6891 20.7598 33.6733 20.8521 33.6617 20.9159C33.6559 20.9478 33.6512 20.9726 33.6478 20.9898L33.6437 21.01L33.6425 21.0157L33.6421 21.0177Z" transform="translate(8 5)" stroke="url(#paint1_linear)" stroke-width="0.2"/>
</g>
<g filter="url(#filter1_d)">
<path fill-rule="evenodd" clip-rule="evenodd" d="M12.7113 8.01803L12.649 8.0042C9.25442 7.41078 7.198 6.53275 7.00886 6.452C6.99959 6.44804 6.99457 6.446 6.99457 6.446C6.64763 6.25343 6.2277 5.95131 6.1957 5.60547C6.16651 5.29118 6.45956 4.95032 6.61001 4.81033C10.0744 3.08336 11.6093 5.19877 11.6738 5.29007C12.6462 6.69721 13.6404 7.46746 14.6279 7.58034C15.4869 7.67717 16.0062 7.23506 16.0511 7.19466C16.7646 6.58156 17.1267 5.86444 17.1284 5.06376C17.1307 3.51054 15.7131 2.26663 15.6654 2.22513C11.5155 -1.56136 5.0583 0.611047 4.795 0.703455C-0.433884 2.42268 0.654111 7.22842 0.665339 7.27656L0.686111 7.34406C2.23445 11.5367 8.75513 12.0812 9.0319 12.1022C12.1482 12.3435 12.2802 13.8021 12.2858 13.884C12.3981 15.4195 9.6427 15.8743 9.25477 15.9308C6.53535 15.7825 5.89479 14.745 5.89479 14.745L5.83135 14.6437C4.40932 12.8022 3.85522 12.1631 2.64091 12.1327C1.62309 12.1 1.02856 12.5056 0.706321 12.8459C-0.107149 13.7041 -0.0021671 14.9718 0.0118679 15.1135L0.026464 15.1926C1.22449 20.0991 7.8131 20.0465 8.0472 20.0432C8.43232 20.0659 8.80116 20.0769 9.15709 20.0769C17.4069 20.0769 17.9722 14.2088 17.9756 14.1579C18.3326 10.57 14.6886 8.57247 12.7113 8.01803ZM12.7057 4.61611C12.6838 4.58457 10.5 1.46429 5.9717 3.76839L5.86616 3.83645C5.76398 3.9178 4.87023 4.66259 4.95949 5.70563C5.02069 6.40837 5.499 7.01372 6.42531 7.52611C6.51514 7.56706 8.65688 8.53761 12.3952 9.19498C12.777 9.31007 17.0728 10.7023 16.7411 14.0533C16.7242 14.2685 16.2246 19.3133 8.07583 18.8308L8.0647 18.8307C7.77717 18.8286 2.22699 18.7883 1.24639 14.9591C1.23909 14.7986 1.22955 14.0821 1.61748 13.6731C1.83586 13.443 2.16147 13.3328 2.60947 13.3483C3.17368 13.3622 3.41003 13.5248 4.81634 15.3431C5.02069 15.6862 6.00482 16.9876 9.25084 17.1476L9.30137 17.1498L9.3519 17.1442C10.9794 16.9633 13.6893 16.0553 13.5259 13.8308C13.5242 13.7246 13.4344 11.2241 9.13014 10.891C9.07063 10.8871 3.17368 10.3979 1.8673 6.96669C1.78309 6.57326 1.18014 3.17356 5.20034 1.85163C5.26041 1.83116 11.2152 -0.175799 14.8317 3.12431C15.127 3.38272 15.8928 4.23541 15.8888 5.06597C15.8872 5.50754 15.6727 5.90538 15.2225 6.29272L15.221 6.29363C15.2028 6.30475 15.0551 6.39104 14.8222 6.37911C14.8062 6.37828 14.7897 6.37699 14.7728 6.37517C14.4275 6.33588 13.6999 6.05423 12.7057 4.61611Z" transform="translate(17.7505 12.6154)" fill="#C4C4C4"/>
<path fill-rule="evenodd" clip-rule="evenodd" d="M12.7113 8.01803L12.649 8.0042C9.25442 7.41078 7.198 6.53275 7.00886 6.452C6.99959 6.44804 6.99457 6.446 6.99457 6.446C6.64763 6.25343 6.2277 5.95131 6.1957 5.60547C6.16651 5.29118 6.45956 4.95032 6.61001 4.81033C10.0744 3.08336 11.6093 5.19877 11.6738 5.29007C12.6462 6.69721 13.6404 7.46746 14.6279 7.58034C15.4869 7.67717 16.0062 7.23506 16.0511 7.19466C16.7646 6.58156 17.1267 5.86444 17.1284 5.06376C17.1307 3.51054 15.7131 2.26663 15.6654 2.22513C11.5155 -1.56136 5.0583 0.611047 4.795 0.703455C-0.433884 2.42268 0.654111 7.22842 0.665339 7.27656L0.686111 7.34406C2.23445 11.5367 8.75513 12.0812 9.0319 12.1022C12.1482 12.3435 12.2802 13.8021 12.2858 13.884C12.3981 15.4195 9.6427 15.8743 9.25477 15.9308C6.53535 15.7825 5.89479 14.745 5.89479 14.745L5.83135 14.6437C4.40932 12.8022 3.85522 12.1631 2.64091 12.1327C1.62309 12.1 1.02856 12.5056 0.706321 12.8459C-0.107149 13.7041 -0.0021671 14.9718 0.0118679 15.1135L0.026464 15.1926C1.22449 20.0991 7.8131 20.0465 8.0472 20.0432C8.43232 20.0659 8.80116 20.0769 9.15709 20.0769C17.4069 20.0769 17.9722 14.2088 17.9756 14.1579C18.3326 10.57 14.6886 8.57247 12.7113 8.01803ZM12.7057 4.61611C12.6838 4.58457 10.5 1.46429 5.9717 3.76839L5.86616 3.83645C5.76398 3.9178 4.87023 4.66259 4.95949 5.70563C5.02069 6.40837 5.499 7.01372 6.42531 7.52611C6.51514 7.56706 8.65688 8.53761 12.3952 9.19498C12.777 9.31007 17.0728 10.7023 16.7411 14.0533C16.7242 14.2685 16.2246 19.3133 8.07583 18.8308L8.0647 18.8307C7.77717 18.8286 2.22699 18.7883 1.24639 14.9591C1.23909 14.7986 1.22955 14.0821 1.61748 13.6731C1.83586 13.443 2.16147 13.3328 2.60947 13.3483C3.17368 13.3622 3.41003 13.5248 4.81634 15.3431C5.02069 15.6862 6.00482 16.9876 9.25084 17.1476L9.30137 17.1498L9.3519 17.1442C10.9794 16.9633 13.6893 16.0553 13.5259 13.8308C13.5242 13.7246 13.4344 11.2241 9.13014 10.891C9.07063 10.8871 3.17368 10.3979 1.8673 6.96669C1.78309 6.57326 1.18014 3.17356 5.20034 1.85163C5.26041 1.83116 11.2152 -0.175799 14.8317 3.12431C15.127 3.38272 15.8928 4.23541 15.8888 5.06597C15.8872 5.50754 15.6727 5.90538 15.2225 6.29272L15.221 6.29363C15.2028 6.30475 15.0551 6.39104 14.8222 6.37911C14.8062 6.37828 14.7897 6.37699 14.7728 6.37517C14.4275 6.33588 13.6999 6.05423 12.7057 4.61611Z" transform="translate(17.7505 12.6154)" fill="url(#paint2_linear)"/>
<path d="M12.7316 7.94571L12.7316 7.94582C13.7289 8.22548 15.1454 8.86834 16.2694 9.89505C17.3945 10.9228 18.2316 12.3407 18.0503 14.1647C18.0445 14.2328 17.8891 15.7115 16.7174 17.1832C15.5287 18.6764 13.3022 20.1519 9.15709 20.1519C8.80044 20.1519 8.43102 20.1409 8.0455 20.1182C7.90407 20.12 6.19985 20.1297 4.3749 19.5303C2.53722 18.9268 0.561445 17.6998 -0.0463955 15.2104L-0.0474119 15.2062L-0.0472916 15.2062L-0.0618877 15.1271L-0.0630286 15.1209L-0.0627666 15.1209C-0.0701357 15.0465 -0.100376 14.6869 -0.0251986 14.2361C0.0499229 13.7855 0.231302 13.238 0.651887 12.7943C0.986811 12.4406 1.60119 12.0243 2.64301 12.0577C3.26713 12.0734 3.72553 12.247 4.20652 12.6516C4.68204 13.0517 5.18124 13.6791 5.89071 14.5979L5.89521 14.6037L5.89491 14.6039L5.95835 14.7051L5.95844 14.7053L5.95849 14.7054L5.95851 14.7054L5.95854 14.7055L5.95861 14.7056L5.95936 14.7067L5.96405 14.7136C5.96854 14.72 5.97584 14.73 5.98629 14.7431C6.00718 14.7693 6.04069 14.8081 6.08962 14.8556C6.18743 14.9506 6.34716 15.0809 6.59143 15.2167C7.07894 15.4876 7.90529 15.7811 9.25136 15.8555C9.45535 15.8254 10.2229 15.6981 10.9281 15.3932C11.2852 15.2388 11.6211 15.041 11.8599 14.7918C12.0973 14.544 12.2372 14.2476 12.211 13.8894L12.2109 13.8891C12.209 13.8609 12.1795 13.4956 11.7735 13.107C11.3667 12.7178 10.5734 12.2968 9.02611 12.177C8.88414 12.1662 7.17759 12.024 5.31065 11.3581C3.44601 10.693 1.40173 9.49833 0.615755 7.37005L0.614318 7.36615L0.614427 7.36612L0.593655 7.29861L0.592123 7.29363L0.592299 7.29359C0.585493 7.26441 0.307853 6.0369 0.692672 4.59729C1.07888 3.15249 2.1311 1.50061 4.77087 0.632439C4.91135 0.583221 6.59732 0.0163505 8.76992 -0.0652398C10.9454 -0.146939 13.62 0.257697 15.7153 2.16913C15.7467 2.19646 16.1149 2.52122 16.4769 3.03431C16.8411 3.55049 17.2046 4.26508 17.2034 5.06387V5.06392C17.2017 5.89002 16.8271 6.62653 16.1006 7.25102M12.7316 7.94571L16.0511 7.19466M12.7316 7.94571L12.7276 7.94481L12.6653 7.93098L12.6653 7.9309L12.6619 7.93032C9.27588 7.33839 7.22542 6.46291 7.03852 6.38311L7.03831 6.38302L7.03831 6.38302L7.02723 6.37834M12.7316 7.94571L7.00886 6.452L6.99457 6.446M16.1006 7.25102C16.1004 7.25119 16.1002 7.25137 16.1 7.25155L16.0511 7.19466M16.1006 7.25102C16.1008 7.25081 16.101 7.25062 16.1012 7.25043L16.0511 7.19466M16.1006 7.25102C16.0444 7.30134 15.5052 7.75472 14.6195 7.65487L14.6194 7.65485C13.5992 7.53824 12.5885 6.74559 11.6124 5.33305M16.0511 7.19466C16.0062 7.23506 15.4869 7.67717 14.6279 7.58034C13.6404 7.46746 12.6462 6.69721 11.6738 5.29007M11.6124 5.33305C11.6125 5.33316 11.6125 5.33327 11.6126 5.33337L11.6738 5.29007M11.6124 5.33305C11.6123 5.33294 11.6122 5.33282 11.6121 5.33271L11.6738 5.29007M11.6124 5.33305C11.5826 5.291 11.1931 4.75424 10.3894 4.43815C9.58828 4.12307 8.36379 4.02261 6.6533 4.87256M11.6738 5.29007C11.6093 5.19877 10.0744 3.08336 6.61001 4.81033M6.61001 4.81033L6.6611 4.86524C6.65855 4.86762 6.65594 4.87006 6.6533 4.87256M6.61001 4.81033C6.45956 4.95032 6.16651 5.29118 6.1957 5.60547C6.2277 5.95131 6.64763 6.25343 6.99457 6.446M6.61001 4.81033L6.64347 4.87745C6.64675 4.87582 6.65003 4.87419 6.6533 4.87256M6.6533 4.87256C6.58188 4.94017 6.48025 5.05194 6.39915 5.18218C6.31406 5.31885 6.25802 5.4655 6.27038 5.59854L6.27038 5.59856C6.28385 5.7442 6.38079 5.89018 6.52833 6.0285C6.67324 6.16436 6.85736 6.28381 7.02723 6.37834M7.02723 6.37834L7.02708 6.37828L7.02405 6.37702L7.02322 6.37668L7.02297 6.37658L7.02289 6.37655L7.02286 6.37654L7.02285 6.37653L7.02285 6.37653L6.99457 6.446M7.02723 6.37834C7.02848 6.37904 7.02972 6.37973 7.03097 6.38042L6.99457 6.446M12.7673 4.57334L12.7674 4.57346C13.7554 6.0025 14.4661 6.26471 14.781 6.30062C14.7811 6.30063 14.7812 6.30064 14.7813 6.30065L12.7673 4.57334ZM12.7673 4.57334C12.7526 4.55211 12.1915 3.75175 11.0591 3.24786C9.92261 2.74219 8.22089 2.5398 5.93769 3.70155L5.93751 3.7012M12.7673 4.57334L5.93751 3.7012M5.93751 3.7012L5.93105 3.70536M5.93751 3.7012L5.93105 3.70536M5.93105 3.70536L5.82551 3.77342L5.82531 3.77311M5.93105 3.70536L5.82531 3.77311M5.82531 3.77311L5.81944 3.77778M5.82531 3.77311L5.81944 3.77778M5.81944 3.77778C5.76523 3.82094 5.51009 4.03275 5.27927 4.36786C5.04854 4.70284 4.83813 5.16703 4.88477 5.71203L4.88478 5.71214M5.81944 3.77778L4.88478 5.71214M4.88478 5.71214C4.94902 6.4499 5.45161 7.07322 6.38901 7.59174L6.3889 7.59194M4.88478 5.71214L6.3889 7.59194M6.3889 7.59194L6.3942 7.59436M6.3889 7.59194L6.3942 7.59436M6.3942 7.59436C6.48844 7.63732 8.63466 8.60939 12.3778 9.26807L6.3942 7.59436ZM14.8317 3.12431C11.2152 -0.175799 5.26041 1.83116 5.20034 1.85163C1.18014 3.17356 1.78309 6.57326 1.8673 6.96669L14.8317 3.12431ZM14.8317 3.12431C15.127 3.38272 15.8928 4.23541 15.8888 5.06597L14.8317 3.12431ZM1.93945 6.94539C1.89659 6.74228 1.73376 5.81673 2.06608 4.78025C2.4 3.73882 3.23643 2.57636 5.22376 1.92288L5.22376 1.92288L5.22453 1.92262C5.25134 1.91348 6.74754 1.40899 8.68588 1.31767C10.6255 1.22629 12.9943 1.54914 14.7812 3.17971L14.7812 3.17972L14.7823 3.18075C14.9252 3.30574 15.1858 3.57839 15.4097 3.92156C15.6343 4.26589 15.8157 4.67182 15.8138 5.06562L15.8138 5.06569C15.8123 5.47739 15.6145 5.85498 15.1784 6.23172L1.93945 6.94539ZM1.93945 6.94539C2.5816 8.62418 4.35093 9.59324 5.99014 10.143C6.808 10.4173 7.58759 10.5852 8.16664 10.6848C8.45606 10.7345 8.69514 10.7672 8.86355 10.7875C8.94774 10.7977 9.01425 10.8047 9.06051 10.8093C9.08365 10.8116 9.10171 10.8133 9.11438 10.8144L9.12925 10.8157L9.13346 10.816C9.13438 10.8161 9.13484 10.8161 9.13497 10.8161L9.13501 10.8161L9.13593 10.8162C11.303 10.9839 12.4226 11.6987 12.9994 12.3983C13.5685 13.0886 13.5993 13.7523 13.6009 13.8274C13.6009 13.8282 13.6009 13.829 13.6009 13.8297L13.5259 13.8308L1.93945 6.94539ZM5.9717 3.76839C10.5 1.46429 12.6838 4.58457 12.7057 4.61611L5.9717 3.76839ZM5.9717 3.76839L5.86616 3.83645M5.9717 3.76839L5.86616 3.83645M5.86616 3.83645C5.76398 3.9178 4.87023 4.66259 4.95949 5.70563L5.86616 3.83645ZM12.2858 13.884C12.3981 15.4195 9.6427 15.8743 9.25477 15.9308L9.0319 12.1022C12.1482 12.3435 12.2802 13.8021 12.2858 13.884Z" transform="translate(17.7505 12.6154)" stroke="url(#paint3_linear)" stroke-width="0.15"/>
</g>
<defs>
<filter id="filter0_d" x="0.239807" y="0.26366" width="51.5211" height="51.5207" filterUnits="userSpaceOnUse" color-interpolation-filters="sRGB">
<feFlood flood-opacity="0" result="BackgroundImageFix"/>
<feColorMatrix in="SourceAlpha" type="matrix" values="0 0 0 0 0 0 0 0 0 0 0 0 0 0 0 0 0 0 255 0"/>
<feOffset dy="3.0241"/>
<feGaussianBlur stdDeviation="3.78012"/>
<feColorMatrix type="matrix" values="0 0 0 0 0 0 0 0 0 0 0 0 0 0 0 0 0 0 0.7 0"/>
<feBlend mode="normal" in2="BackgroundImageFix" result="effect1_dropShadow"/>
<feBlend mode="normal" in="SourceGraphic" in2="effect1_dropShadow" result="shape"/>
</filter>
<filter id="filter1_d" x="10.0403" y="7.92919" width="33.4205" height="35.4974" filterUnits="userSpaceOnUse" color-interpolation-filters="sRGB">
<feFlood flood-opacity="0" result="BackgroundImageFix"/>
<feColorMatrix in="SourceAlpha" type="matrix" values="0 0 0 0 0 0 0 0 0 0 0 0 0 0 0 0 0 0 255 0"/>
<feOffset dy="3.0241"/>
<feGaussianBlur stdDeviation="3.78012"/>
<feColorMatrix type="matrix" values="0 0 0 0 0 0 0 0 0 0 0 0 0 0 0 0 0 0 0.7 0"/>
<feBlend mode="normal" in2="BackgroundImageFix" result="effect1_dropShadow"/>
<feBlend mode="normal" in="SourceGraphic" in2="effect1_dropShadow" result="shape"/>
</filter>
<linearGradient id="paint0_linear" x2="1" gradientUnits="userSpaceOnUse" gradientTransform="translate(22.1771 33.5885) scale(36.0001) rotate(-150)">
<stop stop-color="#89CA70"/>
<stop offset="0.35" stop-color="#1DA8EB"/>
<stop offset="0.75" stop-color="#F11370"/>
<stop offset="1" stop-color="#FB8A00"/>
</linearGradient>
<linearGradient id="paint1_linear" x2="1" gradientUnits="userSpaceOnUse" gradientTransform="translate(22.1771 33.5885) scale(36.0001) rotate(-150)">
<stop stop-color="#89CA70"/>
<stop offset="0.35" stop-color="#1DA8EB"/>
<stop offset="0.75" stop-color="#F11370"/>
<stop offset="1" stop-color="#FB8A00"/>
</linearGradient>
<linearGradient id="paint2_linear" x2="1" gradientUnits="userSpaceOnUse" gradientTransform="translate(11.0885 18.7321) scale(18.0001 20.077) rotate(-150)">
<stop stop-color="#89CA70"/>
<stop offset="0.35" stop-color="#1DA8EB"/>
<stop offset="0.75" stop-color="#F11370"/>
<stop offset="1" stop-color="#FB8A00"/>
</linearGradient>
<linearGradient id="paint3_linear" x2="1" gradientUnits="userSpaceOnUse" gradientTransform="translate(11.0885 18.7321) scale(18.0001 20.077) rotate(-150)">
<stop stop-color="#89CA70"/>
<stop offset="0.35" stop-color="#1DA8EB"/>
<stop offset="0.75" stop-color="#F11370"/>
<stop offset="1" stop-color="#FB8A00"/>
</linearGradient>
</defs>
</svg>
