<svg width="423" height="26" viewBox="0 0 423 26" fill="none" xmlns="http://www.w3.org/2000/svg">
<path d="M14.7532 25.0909C12.0912 25.0909 9.62529 24.5357 7.35557 23.4253C5.11387 22.2912 3.32052 20.7673 1.9755 18.8536C0.658499 16.9399 0 14.8608 0 12.6163C0 10.3719 0.658499 8.30457 1.9755 6.41448C3.29249 4.50077 5.08585 2.9887 7.35557 1.87827C9.62529 0.744221 12.0912 0.177196 14.7532 0.177196C17.5833 0.177196 20.2033 0.8151 22.6131 2.09091C25.023 3.36672 26.8443 5.07961 28.0773 7.22958L22.2769 9.92296C21.6044 8.62352 20.5956 7.6076 19.2506 6.87519C17.9056 6.11916 16.4064 5.74114 14.7532 5.74114C13.2681 5.74114 11.895 6.04828 10.6341 6.66256C9.3731 7.27684 8.37835 8.11556 7.6498 9.17874C6.92124 10.2183 6.55697 11.3641 6.55697 12.6163C6.55697 13.8685 6.92124 15.0262 7.6498 16.0894C8.40637 17.1289 9.40112 17.9558 10.6341 18.5701C11.895 19.1844 13.2681 19.4915 14.7532 19.4915C16.4345 19.4915 17.9476 19.1135 19.2926 18.3575C20.6657 17.5778 21.6884 16.5146 22.3609 15.1679L28.2034 17.7904C26.9985 20.0113 25.1771 21.7833 22.7392 23.1063C20.3014 24.4294 17.6394 25.0909 14.7532 25.0909Z" transform="translate(0.935059)" fill="white"/>
<path d="M38.3787 0.141757H57.3771V5.7057H44.9777V11.4114H54.3508V16.4792H44.9777V19.4915H58.3018V25.0909H38.3787V0.141757Z" transform="translate(0.935059)" fill="white"/>
<path d="M69.9436 0.0708774H76.5426V19.4915H89.0681V25.0909H69.9436V0.0708774Z" transform="translate(0.935059)" fill="white"/>
<path d="M99.4562 0.141757H118.455V5.7057H106.055V11.4114H115.428V16.4792H106.055V19.4915H119.379V25.0909H99.4562V0.141757Z" transform="translate(0.935059)" fill="white"/>
<path d="M147.738 12.1556C149.392 13.5023 150.218 15.3451 150.218 17.6841C150.218 19.1253 149.84 20.4129 149.083 21.547C148.355 22.6574 147.332 23.5316 146.015 24.1695C144.726 24.7838 143.255 25.0909 141.602 25.0909H129.749V0.248073H139.248C141.153 0.248073 142.835 0.567025 144.292 1.20493C145.749 1.84283 146.87 2.74063 147.654 3.89831C148.467 5.05598 148.873 6.39086 148.873 7.90293C148.873 9.53313 148.495 10.9507 147.738 12.1556ZM136.306 10.3128L140.341 10.2773C141.097 10.2301 141.602 10.0529 141.854 9.74576C142.106 9.43862 142.232 8.82434 142.232 7.90293C142.232 7.28865 142.064 6.7925 141.728 6.41448C141.392 6.01284 140.565 5.81202 139.248 5.81202H136.306V10.3128ZM141.602 19.527C142.947 19.527 143.619 18.9127 143.619 17.6841C143.619 16.5265 143.115 15.9122 142.106 15.8413L136.306 15.8767V19.527H141.602Z" transform="translate(0.935059)" fill="white"/>
<path d="M191.703 25.0909C189.041 25.0909 186.715 24.5948 184.726 23.6025C182.764 22.5865 181.293 21.169 180.312 19.3498L186.155 16.6564C186.603 17.6723 187.262 18.4047 188.13 18.8536C188.999 19.2789 190.176 19.4915 191.661 19.4915C192.922 19.4679 193.903 19.3025 194.603 18.9954C195.304 18.6882 195.654 18.2866 195.654 17.7904C195.654 17.6014 195.584 17.3652 195.444 17.0817C195.248 16.7745 194.897 16.5383 194.393 16.3729C193.889 16.2075 193.006 16.0539 191.745 15.9122C190.316 15.6995 189.153 15.4987 188.256 15.3097C187.388 15.0971 186.519 14.7545 185.65 14.282C184.361 13.6204 183.353 12.7463 182.624 11.6595C181.896 10.549 181.531 9.36774 181.531 8.11556C181.531 7.66667 181.601 7.14689 181.741 6.55624C182.134 4.87879 183.086 3.47303 184.6 2.33898C186.141 1.1813 188.032 0.448895 190.274 0.141757C190.946 0.0472523 191.675 0 192.46 0C194.869 0 197.027 0.507961 198.932 1.52388C200.838 2.5398 202.379 4.00462 203.556 5.91834L197.798 8.71803C196.621 6.63893 194.883 5.59938 192.586 5.59938C192.165 5.59938 191.731 5.63482 191.283 5.7057C190.442 5.8002 189.755 6.02465 189.223 6.37905C188.691 6.73344 188.382 7.17052 188.298 7.69029C188.242 7.9738 188.214 8.16281 188.214 8.25732C188.214 8.8716 188.579 9.32049 189.307 9.60401C190.036 9.86389 191.213 10.112 192.838 10.3482C194.323 10.5372 195.598 10.7735 196.663 11.057C197.756 11.3405 198.792 11.8603 199.773 12.6163C200.782 13.3487 201.482 14.3765 201.875 15.6995C202.071 16.3611 202.169 17.0462 202.169 17.755C202.169 19.3852 201.622 20.8028 200.53 22.0077C199.605 22.9764 198.372 23.7324 196.831 24.2758C195.318 24.7956 193.608 25.0673 191.703 25.0909Z" transform="translate(0.935059)" fill="white"/>
<path d="M225.119 25.0909C222.429 25.0909 219.949 24.5357 217.679 23.4253C215.437 22.2912 213.644 20.7673 212.299 18.8536C210.982 16.9399 210.323 14.8608 210.323 12.6163C210.323 10.3719 210.982 8.30457 212.299 6.41448C213.644 4.50077 215.437 2.9887 217.679 1.87827C219.949 0.744221 222.429 0.177196 225.119 0.177196C227.781 0.177196 230.232 0.744221 232.474 1.87827C234.744 2.9887 236.537 4.50077 237.854 6.41448C239.199 8.3282 239.872 10.3955 239.872 12.6163C239.872 14.8608 239.199 16.9399 237.854 18.8536C236.537 20.7673 234.744 22.2912 232.474 23.4253C230.232 24.5357 227.781 25.0909 225.119 25.0909ZM225.119 19.4915C226.604 19.4915 227.963 19.1844 229.196 18.5701C230.457 17.9558 231.451 17.1289 232.18 16.0894C232.908 15.0262 233.273 13.8685 233.273 12.6163C233.273 11.3641 232.908 10.2183 232.18 9.17874C231.451 8.13919 230.457 7.31227 229.196 6.698C227.963 6.08372 226.604 5.77658 225.119 5.77658C223.633 5.77658 222.26 6.08372 220.999 6.698C219.767 7.31227 218.772 8.13919 218.015 9.17874C217.287 10.2183 216.922 11.3641 216.922 12.6163C216.922 13.8685 217.287 15.0262 218.015 16.0894C218.772 17.1289 219.767 17.9558 220.999 18.5701C222.26 19.1844 223.633 19.4915 225.119 19.4915Z" transform="translate(0.935059)" fill="white"/>
<path d="M265.098 25.0909C262.436 25.0909 259.97 24.5357 257.701 23.4253C255.431 22.2912 253.623 20.7673 252.278 18.8536C250.961 16.9399 250.303 14.8608 250.303 12.6163C250.303 10.3719 250.961 8.29276 252.278 6.37905C253.623 4.44171 255.431 2.91782 257.701 1.8074C259.97 0.673343 262.436 0.106316 265.098 0.106316C267.144 0.106316 269.105 0.448895 270.983 1.13405C272.86 1.81921 274.485 2.78788 275.858 4.04006L271.277 8.08012C270.52 7.32409 269.61 6.74525 268.545 6.3436C267.48 5.91834 266.331 5.7057 265.098 5.7057C263.613 5.7057 262.24 6.01284 260.979 6.62712C259.718 7.2414 258.723 8.08012 257.995 9.1433C257.266 10.1828 256.902 11.3405 256.902 12.6163C256.902 13.8685 257.266 15.0262 257.995 16.0894C258.723 17.1289 259.718 17.9558 260.979 18.5701C262.24 19.1844 263.613 19.4915 265.098 19.4915C266.303 19.4915 267.452 19.2789 268.545 18.8536C269.666 18.4284 270.618 17.8259 271.403 17.0462L276.026 21.0508C274.625 22.3503 272.972 23.3544 271.067 24.0632C269.161 24.7483 267.172 25.0909 265.098 25.0909Z" transform="translate(0.935059)" fill="white"/>
<path d="M286.096 0.141757H292.737V25.0909H286.096V0.141757Z" transform="translate(0.935059)" fill="white"/>
<path d="M313.469 0.0354387H319.269L329.903 25.0909H322.926L320.866 20.3066H311.872L309.812 25.0909H302.835L313.469 0.0354387ZM318.723 15.2743L316.369 9.74576L313.973 15.2743H318.723Z" transform="translate(0.935059)" fill="white"/>
<path d="M339.99 0.0708774H346.589V19.4915H359.114V25.0909H339.99V0.0708774Z" transform="translate(0.935059)" fill="white"/>
<path d="M369.503 0.0708774H376.102V19.4915H388.627V25.0909H369.503V0.0708774Z" transform="translate(0.935059)" fill="white"/>
<path d="M404.538 16.4792L394.24 0.177196H401.806L407.942 9.9584L414.499 0.177196H422.065L411.179 16.5855V25.0909H404.538V16.4792Z" transform="translate(0.935059)" fill="white"/>
</svg>
