<svg width="47" height="35" viewBox="0 0 47 35" fill="none" xmlns="http://www.w3.org/2000/svg">
<g filter="url(#filter0_d)">
<path d="M30.753 14.269L27.1263 18.6478C27.1204 18.6551 27.1115 18.6573 27.1056 18.6638C27.0916 18.6792 27.0776 18.6953 27.0635 18.7092C27.0562 18.7172 27.054 18.7267 27.0466 18.7347C27.0001 18.7786 26.944 18.802 26.8908 18.8348C26.8753 18.8436 26.8628 18.8568 26.8465 18.8663C26.8251 18.8794 26.8074 18.9021 26.7838 18.9123C26.7742 18.9167 26.7653 18.9182 26.7565 18.9218C26.6406 18.9715 26.518 18.9993 26.3962 18.9993C26.2737 18.9993 26.1526 18.9715 26.036 18.9218C26.0271 18.9182 26.0183 18.9167 26.0094 18.9123C25.9858 18.9013 25.9674 18.878 25.9445 18.8655C25.926 18.856 25.912 18.8422 25.8958 18.8319C25.8463 18.7983 25.7924 18.7778 25.7466 18.7347C25.7393 18.7274 25.7363 18.7179 25.7297 18.7113C25.7142 18.696 25.7001 18.6807 25.6861 18.6638C25.6802 18.6573 25.6706 18.6551 25.6647 18.6478L22.0373 14.269C21.6785 13.8364 21.7147 13.1721 22.1178 12.787C22.5223 12.4012 23.1394 12.4399 23.4989 12.8732L25.4182 15.189V3.15035C25.4182 2.57158 24.9797 2.10023 24.4393 2.10023H10.676C10.1342 2.10023 9.69793 1.63035 9.69793 1.05012C9.69793 0.470615 10.1349 0.000730716 10.676 0.000730716H24.4393C26.0574 0.000730716 27.3736 1.41331 27.3736 3.15035V15.189L29.2914 12.8732C29.6494 12.4406 30.2672 12.4012 30.6718 12.787C31.0755 13.1721 31.1117 13.8364 30.753 14.269ZM8.23117 6.48046C7.96247 6.48046 7.69378 6.36062 7.50111 6.1275L5.58259 3.81096V15.8504C5.58259 16.4292 6.02107 16.9005 6.56067 16.9005H20.6754C21.2157 16.9005 21.6534 17.3704 21.6534 17.9506C21.6534 18.5301 21.2157 19 20.6754 19H6.56067C4.94259 19 3.62642 17.5874 3.62642 15.8504V3.81096L1.70863 6.1275C1.51523 6.36135 1.24727 6.48046 0.977839 6.48046C0.74679 6.48046 0.515002 6.39204 0.328243 6.21446C-0.0755396 5.82935 -0.11171 5.16508 0.247044 4.73173L3.87297 0.352962C3.88035 0.345654 3.88847 0.342731 3.89512 0.335423C3.9084 0.320077 3.92169 0.304731 3.93645 0.290846C3.94384 0.283538 3.94605 0.273308 3.95343 0.266C3.98886 0.232385 4.03315 0.219962 4.07154 0.192192C4.11731 0.159308 4.15717 0.119115 4.20663 0.0957308C4.2236 0.0869616 4.24206 0.0818461 4.25978 0.0752692C4.31071 0.0540769 4.36386 0.0482309 4.41775 0.0372693C4.47163 0.025577 4.52183 0.00803839 4.57645 0.00584608C4.58679 0.00584608 4.59491 0 4.6045 0C4.6141 0 4.62222 0.00584608 4.63256 0.00584608C4.68644 0.00803839 4.73664 0.0263078 4.78905 0.0372693C4.84294 0.0482309 4.89682 0.0540769 4.94923 0.0752692C4.96695 0.0818461 4.9854 0.0869616 5.00386 0.0957308C5.0511 0.119115 5.0917 0.160038 5.13673 0.192192C5.17438 0.219962 5.21793 0.232385 5.25336 0.266C5.26074 0.273308 5.26296 0.282077 5.27034 0.290115C5.2851 0.304731 5.29913 0.319346 5.31315 0.335423C5.3198 0.342 5.32866 0.344923 5.3353 0.352962L8.9627 4.73173C9.32146 5.16508 9.28529 5.82935 8.88224 6.21446C8.69475 6.39204 8.46222 6.48046 8.23117 6.48046Z" transform="translate(8 5)" fill="url(#paint0_linear)"/>
</g>
<defs>
<filter id="filter0_d" x="0.439758" y="0.463855" width="46.1205" height="34.1205" filterUnits="userSpaceOnUse" color-interpolation-filters="sRGB">
<feFlood flood-opacity="0" result="BackgroundImageFix"/>
<feColorMatrix in="SourceAlpha" type="matrix" values="0 0 0 0 0 0 0 0 0 0 0 0 0 0 0 0 0 0 255 0"/>
<feOffset dy="3.0241"/>
<feGaussianBlur stdDeviation="3.78012"/>
<feColorMatrix type="matrix" values="0 0 0 0 0 0 0 0 0 0 0 0 0 0 0 0 0 0 0.7 0"/>
<feBlend mode="normal" in2="BackgroundImageFix" result="effect1_dropShadow"/>
<feBlend mode="normal" in="SourceGraphic" in2="effect1_dropShadow" result="shape"/>
</filter>
<linearGradient id="paint0_linear" x2="1" gradientUnits="userSpaceOnUse" gradientTransform="translate(31 9.5) scale(31 19) rotate(180)">
<stop offset="0.23" stop-color="#1DC515"/>
<stop offset="1" stop-color="#1DA8EB"/>
</linearGradient>
</defs>
</svg>
