<svg width="22" height="22" viewBox="0 0 22 22" fill="none" xmlns="http://www.w3.org/2000/svg">
<g filter="url(#filter0_d)">
<path d="M11.1283 6.904C11.7498 6.84933 12.0217 6.57967 12.479 6.09967C14.0498 4.44933 14.002 1.89833 13.9993 1.74267C13.994 1.45367 13.7652 1.22167 13.4849 1.22167L11.1701 1.22V0.265333C11.1701 0.119 11.055 -7.24792e-08 10.9125 -7.24792e-08H3.08713C2.94497 -7.24792e-08 2.8299 0.119 2.8299 0.265333V1.21967L0.51513 1.22167C0.234481 1.22167 0.00567974 1.45333 0.000662177 1.74267C-0.00201386 1.89833 -0.0498481 4.44933 1.52098 6.09933C1.97792 6.57967 2.2502 6.84933 2.87171 6.904C3.10921 8.62 4.35591 9.49733 5.97023 9.88967V11.7943H4.666C4.58203 11.7943 4.50309 11.8367 4.45492 11.908L3.32229 13.583C3.26743 13.6643 3.26074 13.77 3.30523 13.8577C3.34972 13.9453 3.4377 14 3.53336 14C3.53336 14 10.4673 14 10.4676 14C10.6098 14 10.7249 13.8813 10.7249 13.7347C10.7249 13.6707 10.6988 13.6183 10.666 13.566L9.54508 11.9077C9.49691 11.8367 9.4183 11.7943 9.33401 11.7943H8.02977V9.88967C9.64409 9.49733 10.8905 8.62033 11.1283 6.904ZM12.9617 2.283C12.9122 3.45833 12.6426 4.41133 11.7441 5.35567C11.4959 5.61633 11.4899 5.77233 11.1701 5.82867V2.28167L12.9617 2.283ZM1.03863 2.283L2.8299 2.28167V5.82867C2.51011 5.77233 2.50443 5.61667 2.25623 5.35633C1.35942 4.41533 1.08914 3.45967 1.03863 2.283Z" transform="translate(4 2)" fill="#EFEFEF"/>
</g>
<defs>
<filter id="filter0_d" x="0" y="0" width="22" height="22" filterUnits="userSpaceOnUse" color-interpolation-filters="sRGB">
<feFlood flood-opacity="0" result="BackgroundImageFix"/>
<feColorMatrix in="SourceAlpha" type="matrix" values="0 0 0 0 0 0 0 0 0 0 0 0 0 0 0 0 0 0 255 0"/>
<feOffset dy="2"/>
<feGaussianBlur stdDeviation="2"/>
<feColorMatrix type="matrix" values="0 0 0 0 0 0 0 0 0 0 0 0 0 0 0 0 0 0 0.25 0"/>
<feBlend mode="normal" in2="BackgroundImageFix" result="effect1_dropShadow"/>
<feBlend mode="normal" in="SourceGraphic" in2="effect1_dropShadow" result="shape"/>
</filter>
</defs>
</svg>
