<svg width="26" height="32" viewBox="0 0 26 32" fill="none" xmlns="http://www.w3.org/2000/svg">
<g filter="url(#filter0_d)">
<path d="M8 0C3.589 0 0 3.53763 0 7.88574C0 10.6719 1.473 13.1254 3.692 14.5287V21.3934C3.692 21.617 3.817 21.8226 4.017 21.9282C4.2175 22.0338 4.46 22.0222 4.649 21.8982L8 19.6958L11.351 21.8982C11.5395 22.0222 11.7825 22.0338 11.9825 21.9282C12.1825 21.8226 12.3075 21.617 12.3075 21.3934V14.5287C14.5265 13.1254 16 10.6719 16 7.88574C16 3.53763 12.411 0 8 0ZM11.077 20.2597L8.3415 18.4621C8.1345 18.3265 7.8655 18.3265 7.6585 18.4621L4.923 20.2597V15.1651C5.8705 15.5559 6.91 15.772 8 15.772C9.0895 15.772 10.129 15.5559 11.077 15.1651V20.2597ZM8 14.5588C4.2675 14.5588 1.2305 11.5655 1.2305 7.88574C1.2305 4.20653 4.2675 1.21323 8 1.21323C11.7325 1.21323 14.769 4.20653 14.769 7.88574C14.769 11.5655 11.7325 14.5588 8 14.5588Z" transform="translate(5 3)" fill="#EFEFEF"/>
<path d="M3.95865 22.0387L3.95877 22.0388C4.19939 22.1655 4.49047 22.1518 4.7176 22.0027L4.71765 22.0026L8 19.8454L11.2823 22.0026C11.509 22.1518 11.8007 22.1655 12.0408 22.0387C12.2812 21.9119 12.4325 21.664 12.4325 21.3934V14.5972C14.6532 13.1664 16.125 10.6928 16.125 7.88574C16.125 3.4669 12.4783 -0.125 8 -0.125C3.52167 -0.125 -0.125 3.4669 -0.125 7.88574C-0.125 10.6928 1.34633 13.1664 3.567 14.5972V21.3934C3.567 21.664 3.71826 21.9119 3.95865 22.0387ZM7.58985 18.3576L5.048 20.028V15.3496C5.96341 15.7029 6.95916 15.897 8 15.897C9.04042 15.897 10.0362 15.7028 10.952 15.3496V20.028L8.41015 18.3576L8.40999 18.3575C8.16139 18.1947 7.83861 18.1947 7.59001 18.3575L7.58985 18.3576ZM8 14.4338C4.33483 14.4338 1.3555 11.4947 1.3555 7.88574C1.3555 4.27726 4.33483 1.33823 8 1.33823C11.6652 1.33823 14.644 4.27725 14.644 7.88574C14.644 11.4947 11.6652 14.4338 8 14.4338Z" transform="translate(5 3)" stroke="#EFEFEF" stroke-width="0.25"/>
</g>
<defs>
<filter id="filter0_d" x="0.75" y="0.75" width="24.5" height="30.5" filterUnits="userSpaceOnUse" color-interpolation-filters="sRGB">
<feFlood flood-opacity="0" result="BackgroundImageFix"/>
<feColorMatrix in="SourceAlpha" type="matrix" values="0 0 0 0 0 0 0 0 0 0 0 0 0 0 0 0 0 0 255 0"/>
<feOffset dy="2"/>
<feGaussianBlur stdDeviation="2"/>
<feColorMatrix type="matrix" values="0 0 0 0 0 0 0 0 0 0 0 0 0 0 0 0 0 0 0.25 0"/>
<feBlend mode="normal" in2="BackgroundImageFix" result="effect1_dropShadow"/>
<feBlend mode="normal" in="SourceGraphic" in2="effect1_dropShadow" result="shape"/>
</filter>
</defs>
</svg>
