<svg width="27" height="25" viewBox="0 0 27 25" fill="none" xmlns="http://www.w3.org/2000/svg">
<g filter="url(#filter0_d)">
<path fill-rule="evenodd" clip-rule="evenodd" d="M18.7423 12.0829L14.1822 16.7369C13.8387 17.0877 13.2822 17.0877 12.9387 16.7369L10.0369 13.7753C9.69333 13.425 9.69333 12.8565 10.0369 12.5061C10.3804 12.1558 10.9373 12.1558 11.2804 12.5061L13.5607 14.8331L17.4988 10.8137C17.8424 10.4634 18.3988 10.4634 18.7423 10.8137C19.0859 11.1646 19.0859 11.7326 18.7423 12.0829ZM16.5661 5.86435H0.712745C0.318835 5.86435 0 5.53782 0 5.1355V4.83375C0 4.43142 0.318835 4.1049 0.712745 4.1049H16.5661C16.9595 4.1049 17.2784 4.43142 17.2784 4.83375V5.1355C17.2784 5.53782 16.9595 5.86435 16.5661 5.86435ZM16.5661 1.75945H0.712745C0.318835 1.75945 0 1.43292 0 1.0306V0.728853C0 0.32604 0.318835 0 0.712745 0H16.5661C16.9595 0 17.2784 0.32604 17.2784 0.728853V1.0306C17.2784 1.43292 16.9595 1.75945 16.5661 1.75945ZM0.712745 8.21028H15.4138C15.8077 8.21028 16.1266 8.53632 16.1266 8.93865V9.24039C16.1266 9.64321 15.8077 9.96925 15.4138 9.96925H0.712745C0.318835 9.96925 0 9.64321 0 9.24039V8.93865C0 8.53632 0.318835 8.21028 0.712745 8.21028ZM0.712745 12.3152H7.35078C7.74421 12.3152 8.06352 12.6412 8.06352 13.044V13.3453C8.06352 13.7481 7.74421 14.0741 7.35078 14.0741H0.712745C0.318835 14.0741 0 13.7481 0 13.3453V13.044C0 12.6412 0.318835 12.3152 0.712745 12.3152Z" transform="translate(4 2)" fill="#EFEFEF"/>
</g>
<defs>
<filter id="filter0_d" x="0" y="0" width="27" height="25" filterUnits="userSpaceOnUse" color-interpolation-filters="sRGB">
<feFlood flood-opacity="0" result="BackgroundImageFix"/>
<feColorMatrix in="SourceAlpha" type="matrix" values="0 0 0 0 0 0 0 0 0 0 0 0 0 0 0 0 0 0 255 0"/>
<feOffset dy="2"/>
<feGaussianBlur stdDeviation="2"/>
<feColorMatrix type="matrix" values="0 0 0 0 0 0 0 0 0 0 0 0 0 0 0 0 0 0 0.25 0"/>
<feBlend mode="normal" in2="BackgroundImageFix" result="effect1_dropShadow"/>
<feBlend mode="normal" in="SourceGraphic" in2="effect1_dropShadow" result="shape"/>
</filter>
</defs>
</svg>
